<svg width="170" height="36" viewBox="0 0 170 36" fill="none" xmlns="http://www.w3.org/2000/svg">
<path d="M40.1919 13.483V13.4309C40.1919 8.25585 44.363 4.05981 49.9242 4.05981C55.4854 4.05981 59.6046 8.20441 59.6046 13.3795V13.4315C59.6046 18.6055 55.4334 22.8027 49.8722 22.8027C44.311 22.8027 40.1919 18.6569 40.1919 13.483ZM54.5063 13.483V13.4309C54.5063 10.8307 52.6279 8.56505 49.8722 8.56505C47.1165 8.56505 45.3149 10.7792 45.3149 13.3795V13.4315C45.3149 16.0318 47.1951 18.2974 49.9236 18.2974C52.6522 18.2974 54.5058 16.0832 54.5058 13.483H54.5063Z" fill="black"/>
<path d="M61.5864 13.483V13.4309C61.5864 8.17898 65.6287 4.05981 71.0865 4.05981C74.7681 4.05981 77.1372 5.60414 78.7329 7.81833L74.9744 10.7278C73.9433 9.44125 72.7602 8.61707 71.0356 8.61707C68.5122 8.61707 66.7361 10.7544 66.7361 13.3795V13.4315C66.7361 16.1335 68.5122 18.246 71.0356 18.246C72.914 18.246 74.0219 17.3704 75.1027 16.0572L78.8612 18.7344C77.162 21.0774 74.871 22.8032 70.8801 22.8032C65.7316 22.8032 61.5858 18.8644 61.5858 13.4835L61.5864 13.483Z" fill="black"/>
<path d="M85.4004 8.79737H79.9929V4.42102H95.8009V8.79737H90.3934V22.4414H85.4004V8.79737Z" fill="black"/>
<path d="M96.5984 13.483V13.4309C96.5984 8.25585 100.77 4.05981 106.331 4.05981C111.892 4.05981 116.011 8.20441 116.011 13.3795V13.4315C116.011 18.6055 111.84 22.8027 106.279 22.8027C100.718 22.8027 96.5984 18.6569 96.5984 13.483ZM110.913 13.483V13.4309C110.913 10.8307 109.034 8.56505 106.279 8.56505C103.523 8.56505 101.721 10.7792 101.721 13.3795V13.4315C101.721 16.0318 103.602 18.2974 106.33 18.2974C109.059 18.2974 110.912 16.0832 110.912 13.483H110.913Z" fill="black"/>
<path d="M118.611 4.42102H126.335C130.892 4.42102 133.826 6.76409 133.826 10.7544V10.8046C133.826 15.0527 130.557 17.2935 126.078 17.2935H123.606V22.442H118.611V4.42102ZM125.974 13.3795C127.75 13.3795 128.832 12.4518 128.832 11.0364V10.9844C128.832 9.44007 127.75 8.61647 125.949 8.61647H123.606V13.3789H125.974L125.974 13.3795Z" fill="black"/>
<path d="M135.706 14.5377V4.42102H140.778V14.4354C140.778 17.0357 142.09 18.2708 144.099 18.2708C146.107 18.2708 147.419 17.086 147.419 14.5643V4.42102H152.491V14.4088C152.491 20.2272 149.17 22.776 144.046 22.776C138.923 22.776 135.706 20.1758 135.706 14.5377H135.706Z" fill="black"/>
<path d="M154.088 19.7643L156.869 16.4422C158.645 17.8593 160.627 18.6043 162.712 18.6043C164.051 18.6043 164.771 18.1414 164.771 17.3692V17.3172C164.771 16.5705 164.179 16.159 161.733 15.5926C157.898 14.7169 154.937 13.6356 154.937 9.92907V9.87705C154.937 6.53005 157.589 4.11011 161.914 4.11011C164.978 4.11011 167.371 4.93371 169.328 6.50462L166.832 10.0308C165.184 8.87254 163.381 8.2547 161.785 8.2547C160.575 8.2547 159.983 8.76967 159.983 9.41294V9.46496C159.983 10.2886 160.6 10.6498 163.098 11.2162C167.243 12.1167 169.817 13.4552 169.817 16.8277V16.8797C169.817 20.5613 166.908 22.7501 162.532 22.7501C159.34 22.7501 156.302 21.7456 154.087 19.7637L154.088 19.7643Z" fill="black"/>
<path fill-rule="evenodd" clip-rule="evenodd" d="M28.6943 26.8419C29.2792 26.8419 29.8601 26.7777 30.4259 26.6454C30.7392 26.5737 31.0437 26.4795 31.346 26.3703C32.202 26.057 32.9938 25.5894 33.6845 25.0011C34.1486 24.6051 34.8456 24.6618 35.238 25.1259L35.3097 25.2085C35.7021 25.6686 35.6455 26.3662 35.1854 26.7586C34.2838 27.5245 33.2545 28.1273 32.1453 28.5388C31.0409 28.9463 29.8751 29.1537 28.6943 29.1537C26.0282 29.1537 23.4897 28.0897 21.6079 26.2078C19.722 24.3219 18.6579 21.7841 18.6579 19.1174C18.6579 18.5099 19.1561 18.0158 19.7595 18.0158H19.8688C20.4762 18.0158 20.9698 18.5099 20.9698 19.1174C20.9698 19.4116 20.9889 19.7057 21.023 19.9959C21.2224 21.7234 21.9957 23.3302 23.2412 24.5745C24.6931 26.0229 26.6385 26.8413 28.6937 26.8413L28.6943 26.8419ZM14.2232 14.4902C14.2232 13.9249 14.6838 13.4643 15.2456 13.4643H16.049C16.6154 13.4643 17.0749 13.9249 17.0749 14.4902C17.0749 15.0554 16.6154 15.5161 16.049 15.5161H15.2456C14.6838 15.5161 14.2232 15.0525 14.2232 14.4902ZM18.3834 14.4902C18.3834 13.9249 18.844 13.4643 19.4099 13.4643H20.2092C20.775 13.4643 21.2351 13.9249 21.2351 14.4902C21.2351 15.0554 20.775 15.5161 20.2092 15.5161H19.4099C18.8435 15.5161 18.3834 15.0525 18.3834 14.4902ZM6.87669 26.8419C8.92847 26.8419 10.8785 26.0235 12.3269 24.5751C12.561 24.3416 12.7795 24.0965 12.9794 23.8359C13.3944 23.3007 13.7343 22.7158 13.9943 22.0974C14.3902 21.1657 14.5977 20.1548 14.5977 19.1179C14.5977 18.5105 15.0913 18.0163 15.6988 18.0163H15.8086C16.416 18.0163 16.9096 18.5105 16.9096 19.1179C16.9096 21.7841 15.8456 24.3225 13.9643 26.2084C12.0784 28.0903 9.544 29.1543 6.87727 29.1543C5.69706 29.1543 4.52784 28.9468 3.42219 28.5394C2.31423 28.1279 1.28487 27.525 0.386134 26.7592C-0.0768162 26.3668 -0.12999 25.6692 0.26187 25.2091L0.330073 25.1265C0.722512 24.6624 1.42416 24.6057 1.88365 25.0016C2.57778 25.59 3.37017 26.0582 4.22267 26.3708C5.07055 26.6841 5.96871 26.8425 6.87727 26.8425L6.87669 26.8419ZM17.7841 2.30839C15.8681 2.30839 14.0464 3.0742 12.6928 4.42779C11.3392 5.78601 10.5728 7.60372 10.5728 9.52314C10.5728 10.3722 10.9161 10.9264 11.3311 11.6316C12.4211 13.4568 12.8546 14.826 12.8546 16.9945V19.1179C12.8546 20.7056 12.2206 22.2182 11.0964 23.3417C9.97632 24.4659 8.46436 25.0953 6.87611 25.0953C5.28786 25.0953 3.77302 24.4653 2.65234 23.3417C1.5282 22.2182 0.895325 20.7056 0.895325 19.1179C0.895325 18.5105 1.3889 18.0163 1.99635 18.0163H2.10558C2.71245 18.0163 3.20661 18.5105 3.20661 19.1179C3.20661 20.0947 3.595 21.0189 4.28567 21.709C4.97461 22.3991 5.89935 22.7875 6.87611 22.7875C7.85287 22.7875 8.77357 22.3991 9.46367 21.709C10.1538 21.0189 10.5427 20.0947 10.5427 19.1179V16.9945C10.5427 15.245 10.2185 14.2758 9.34692 12.8118C8.69439 11.7142 8.26092 10.8548 8.26092 9.52314C8.26092 6.99223 9.26715 4.58269 11.056 2.79446C12.8471 1.00681 15.2531 0 17.7841 0C20.315 0 22.7245 1.00681 24.5122 2.79446C26.2998 4.58269 27.3072 6.99223 27.3072 9.52314C27.3072 10.8548 26.8772 11.7142 26.2247 12.8118C25.3531 14.2752 25.0254 15.2444 25.0254 16.9945V19.1179C25.0254 20.0947 25.4178 21.0189 26.1044 21.709C26.7945 22.3991 27.7181 22.7875 28.6949 22.7875C29.6717 22.7875 30.5958 22.3991 31.2824 21.709C31.9725 21.0189 32.3609 20.0947 32.3609 19.1179C32.3609 18.5105 32.8551 18.0163 33.4625 18.0163H33.5718C34.1786 18.0163 34.6728 18.5105 34.6728 19.1179C34.6728 20.7056 34.0388 22.2182 32.9192 23.3417C31.7951 24.4659 30.2831 25.0953 28.6949 25.0953L28.2054 25.0762C26.798 24.9594 25.4785 24.3485 24.4717 23.3411C23.9509 22.8204 23.54 22.221 23.2424 21.5651C22.8991 20.8027 22.7176 19.9699 22.7176 19.1174V16.9939C22.7176 14.8254 23.151 13.4562 24.2376 11.631C24.6561 10.9253 24.9953 10.3716 24.9953 9.52256C24.9953 7.60314 24.2341 5.78543 22.8759 4.42722C21.5218 3.07362 19.7046 2.30782 17.7846 2.30782L17.7841 2.30839ZM20.9068 9.51563C20.9068 8.68625 20.567 7.90194 19.9826 7.31704C19.3977 6.73272 18.6134 6.40097 17.7835 6.40097C17.176 6.40097 16.6819 5.90681 16.6819 5.29936V5.19013C16.6819 4.58327 17.176 4.08911 17.7835 4.08911C19.2232 4.08911 20.597 4.6665 21.6154 5.68083C22.6338 6.6992 23.214 8.06782 23.2175 9.50869C23.2175 9.80981 23.1123 10.0739 22.8973 10.2889C22.6823 10.5039 22.4222 10.6132 22.1159 10.6132H22.0073C21.4033 10.6132 20.9097 10.119 20.9062 9.51563H20.9068ZM17.7841 24.919C18.1649 24.9034 18.5418 25.0849 18.7568 25.4276C19.8277 27.102 21.3102 28.4902 23.0487 29.452C24.7838 30.4062 26.7148 30.9004 28.6943 30.9004C29.3018 30.9004 29.7959 31.3945 29.7959 32.0014V32.1112C29.7959 32.7181 29.3012 33.2122 28.6943 33.2122C26.3258 33.2122 24.0105 32.6163 21.9362 31.4731C20.341 30.5981 18.9302 29.4179 17.7841 28.0146C16.6374 29.4179 15.2271 30.5981 13.6348 31.4731C11.5605 32.6163 9.24173 33.2122 6.87611 33.2122C6.26925 33.2122 5.77508 32.7181 5.77508 32.1112V32.0014C5.77508 31.3939 6.26925 30.9004 6.87611 30.9004C8.85275 30.9004 10.7837 30.4062 12.5182 29.452C14.2608 28.4902 15.7392 27.102 16.8102 25.4276C17.0287 25.0843 17.4061 24.9034 17.7835 24.919H17.7841Z" fill="#00FF00"/>
<path d="M43.0239 33.1558V25.3879H44.1463L46.6922 32.2391H46.7136L49.2174 25.3879H50.3282V33.1558H49.5948V26.2295H49.5734L47.0275 33.1558H46.3374L43.7799 26.2295H43.7585V33.1558H43.025H43.0239Z" fill="#231F20"/>
<path d="M54.1693 33.3067C53.8093 33.2997 53.4729 33.235 53.1602 33.1125C52.8481 32.9905 52.5747 32.8067 52.3407 32.5628C52.1066 32.3184 51.9216 32.012 51.7846 31.6462C51.6477 31.2792 51.58 30.8515 51.58 30.3619C51.58 29.9516 51.6338 29.569 51.7413 29.2129C51.8494 28.8563 52.0112 28.546 52.2268 28.2795C52.443 28.0137 52.7123 27.8027 53.0359 27.6484C53.3602 27.4935 53.7376 27.4166 54.1693 27.4166C54.6011 27.4166 54.9889 27.4935 55.3125 27.6484C55.6368 27.8033 55.9067 28.0114 56.1217 28.2743C56.3379 28.5367 56.4974 28.8482 56.602 29.2077C56.7066 29.5672 56.758 29.9516 56.758 30.3619C56.758 30.8081 56.6974 31.2104 56.5748 31.5699C56.4523 31.93 56.2783 32.2392 56.0518 32.4975C55.8246 32.757 55.5513 32.9564 55.2316 33.0969C54.912 33.2373 54.5571 33.3067 54.1693 33.3067ZM56.068 30.3614C56.068 30.0302 56.0321 29.721 55.9604 29.4337C55.8882 29.1459 55.7767 28.8968 55.6258 28.6835C55.475 28.472 55.2808 28.305 55.0432 28.1824C54.8063 28.0599 54.515 27.9986 54.1699 27.9986C53.8249 27.9986 53.5422 28.0657 53.3012 28.1986C53.0596 28.3315 52.8643 28.5078 52.7134 28.7269C52.5626 28.9465 52.451 29.1985 52.3788 29.4823C52.3071 29.7661 52.2713 30.0597 52.2713 30.3614C52.2713 30.7064 52.3123 31.0249 52.3956 31.3162C52.4788 31.6075 52.599 31.8577 52.7574 32.0664C52.9151 32.275 53.1128 32.4368 53.3504 32.5518C53.5879 32.6669 53.8613 32.7247 54.1705 32.7247C54.508 32.7247 54.7976 32.6582 55.0386 32.5247C55.2802 32.3918 55.4755 32.2137 55.6264 31.9912C55.7772 31.7676 55.8888 31.5161 55.961 31.2358C56.0327 30.9549 56.0685 30.6636 56.0685 30.3619L56.068 30.3614Z" fill="#231F20"/>
<path d="M58.6255 33.1558H57.9776V27.5675H58.6255V28.6142H58.6463C58.8267 28.168 59.0578 27.8565 59.3428 27.6802C59.6266 27.5045 60.0022 27.4166 60.4704 27.4166V28.1177C60.1034 28.1108 59.8017 28.1686 59.5641 28.2905C59.3266 28.413 59.1376 28.5789 58.9977 28.7876C58.8573 28.9962 58.7602 29.2424 58.7064 29.5262C58.6527 29.81 58.6255 30.1065 58.6255 30.4163V33.1564V33.1558Z" fill="#231F20"/>
<path d="M61.9373 30.5122C61.9373 30.8151 61.9772 31.1 62.0563 31.3699C62.1355 31.6398 62.2523 31.8733 62.4066 32.0716C62.5615 32.2698 62.758 32.427 62.9944 32.5461C63.2319 32.6651 63.5053 32.7247 63.8145 32.7247C64.2387 32.7247 64.6017 32.6125 64.904 32.39C65.2068 32.1675 65.4074 31.8508 65.5085 31.4404H66.2316C66.1524 31.7063 66.0478 31.9531 65.9183 32.1791C65.7888 32.4062 65.627 32.6033 65.4328 32.7732C65.2386 32.942 65.0086 33.0738 64.7427 33.1668C64.4763 33.2604 64.1665 33.3067 63.8151 33.3067C63.3689 33.3067 62.9846 33.231 62.6609 33.0801C62.3367 32.9293 62.0708 32.7224 61.8621 32.46C61.6535 32.197 61.4992 31.8878 61.398 31.5323C61.2969 31.1757 61.2472 30.7937 61.2472 30.3833C61.2472 29.973 61.3061 29.5886 61.4252 29.2291C61.5443 28.8691 61.713 28.5546 61.9327 28.2847C62.1517 28.0148 62.4199 27.8027 62.7366 27.6484C63.0527 27.4935 63.4128 27.4166 63.8157 27.4166C64.5849 27.4166 65.1895 27.6802 65.6282 28.2096C66.0668 28.7384 66.2824 29.506 66.2749 30.5128H61.9379L61.9373 30.5122ZM65.5837 29.973C65.5837 29.6996 65.5461 29.4424 65.471 29.202C65.3947 28.9604 65.2837 28.7523 65.1363 28.576C64.9884 28.3997 64.8028 28.2593 64.5803 28.1553C64.3578 28.0507 64.1023 27.9986 63.8145 27.9986C63.5267 27.9986 63.273 28.053 63.0539 28.161C62.8343 28.2685 62.6476 28.413 62.4927 28.5928C62.3378 28.772 62.2141 28.9812 62.1205 29.2181C62.0263 29.4557 61.965 29.7077 61.9367 29.9735H65.5831L65.5837 29.973Z" fill="#231F20"/>
<path d="M69.9316 25.3879H75.5852V26.0133H73.126V33.1558H72.3925V26.0133H69.9321V25.3879H69.9316Z" fill="#231F20"/>
<path d="M76.5348 33.1558V25.3879H77.1816V28.3442C77.4411 28.0709 77.7081 27.8472 77.9855 27.6749C78.2629 27.5021 78.5953 27.4166 78.9837 27.4166C79.3287 27.4166 79.6483 27.4755 79.9437 27.5946C80.239 27.7137 80.487 27.9206 80.6887 28.2148C80.8245 28.4165 80.906 28.6234 80.9308 28.8355C80.9563 29.0476 80.969 29.269 80.969 29.499V33.1564H80.3222V29.51C80.3222 29.0066 80.2101 28.6292 79.9876 28.3772C79.7639 28.1252 79.3946 27.9992 78.8762 27.9992C78.675 27.9992 78.4912 28.0298 78.3265 28.0911C78.1607 28.1523 78.0121 28.2333 77.8792 28.3338C77.7457 28.435 77.6324 28.55 77.5393 28.6789C77.4457 28.8089 77.3735 28.9447 77.3232 29.0892C77.2584 29.2696 77.2186 29.4418 77.2041 29.6071C77.1897 29.773 77.1827 29.9521 77.1827 30.1463V33.1564H76.536L76.5348 33.1558Z" fill="#231F20"/>
<path d="M85.1021 29.8978C85.2241 29.8834 85.3697 29.862 85.539 29.8331C85.7078 29.8048 85.8459 29.7649 85.9546 29.7152C86.0621 29.6643 86.1286 29.5799 86.154 29.4609C86.1789 29.3418 86.1916 29.2331 86.1916 29.132C86.1916 28.8008 86.0852 28.5298 85.8731 28.3171C85.661 28.1055 85.3032 27.9986 84.7993 27.9986C84.5767 27.9986 84.371 28.0188 84.1843 28.0581C83.9976 28.0974 83.834 28.1656 83.6936 28.2627C83.5532 28.3598 83.4381 28.4893 83.3486 28.6511C83.259 28.813 83.1989 29.0164 83.1705 29.2609H82.5122C82.5336 28.9297 82.6093 28.6477 82.7388 28.4136C82.8683 28.1807 83.0353 27.9894 83.241 27.842C83.4456 27.6946 83.6832 27.5865 83.9531 27.5183C84.223 27.4495 84.508 27.416 84.8108 27.416C85.0911 27.416 85.3553 27.4466 85.6038 27.5073C85.8517 27.5686 86.0679 27.6657 86.2517 27.7986C86.4349 27.9321 86.5788 28.1102 86.6828 28.3327C86.7874 28.5563 86.8395 28.8286 86.8395 29.1528V32.1952C86.8395 32.4472 86.8845 32.6067 86.9741 32.6755C87.0643 32.7437 87.2463 32.7275 87.5197 32.627V33.1333C87.4689 33.1483 87.3949 33.1691 87.2978 33.198C87.2013 33.2263 87.1059 33.2413 87.0123 33.2413C86.9111 33.2413 86.814 33.2303 86.721 33.2084C86.6129 33.1939 86.5268 33.1598 86.4615 33.1061C86.3973 33.0523 86.3447 32.987 86.3054 32.9119C86.2661 32.8368 86.239 32.7541 86.2245 32.6639C86.2095 32.5744 86.2031 32.4784 86.2031 32.3778C85.9297 32.6807 85.6165 32.9107 85.2639 33.0691C84.9119 33.2269 84.5305 33.3061 84.1207 33.3061C83.8757 33.3061 83.6404 33.2737 83.4139 33.209C83.1867 33.1448 82.9873 33.0437 82.8145 32.9073C82.6417 32.7703 82.5053 32.6033 82.4042 32.4062C82.3042 32.2079 82.2533 31.9727 82.2533 31.6993C82.2533 30.7497 82.9041 30.1885 84.2063 30.0163L85.1021 29.8972V29.8978ZM86.1916 30.2215C85.9182 30.3365 85.6419 30.4122 85.361 30.4486C85.0807 30.4844 84.7998 30.5128 84.5195 30.5347C84.0236 30.5705 83.6364 30.6827 83.3595 30.8694C83.0833 31.056 82.9451 31.3398 82.9451 31.7219C82.9451 31.8947 82.9787 32.0438 83.0474 32.1692C83.1156 32.2946 83.2052 32.3992 83.3173 32.4825C83.4289 32.5645 83.5578 32.6258 83.7057 32.6657C83.8531 32.7056 84.0022 32.7252 84.1531 32.7252C84.4126 32.7252 84.6634 32.6923 84.9085 32.6281C85.153 32.5634 85.3703 32.4645 85.5604 32.3316C85.7512 32.1981 85.9043 32.0288 86.0193 31.8242C86.1343 31.619 86.1921 31.3757 86.1921 31.0959V30.222L86.1916 30.2215Z" fill="#231F20"/>
<path d="M89.1795 33.1558H88.5328V27.5675H89.1795V28.3443C89.4391 28.0709 89.7061 27.8472 89.9835 27.675C90.2609 27.5027 90.5933 27.4166 90.9817 27.4166C91.3267 27.4166 91.6463 27.4756 91.9416 27.5946C92.237 27.7137 92.4849 27.9206 92.6867 28.2148C92.8225 28.4165 92.904 28.6234 92.9288 28.8355C92.9542 29.0476 92.967 29.269 92.967 29.499V33.1564H92.3202V29.51C92.3202 29.0066 92.2081 28.6292 91.9856 28.3772C91.7619 28.1252 91.3926 27.9992 90.8741 27.9992C90.673 27.9992 90.4892 28.0299 90.3245 28.0911C90.1586 28.1524 90.0101 28.2333 89.8772 28.3339C89.7436 28.435 89.6304 28.55 89.5373 28.6789C89.4437 28.8089 89.3714 28.9448 89.3212 29.0893C89.2564 29.2696 89.2165 29.4418 89.2021 29.6071C89.1876 29.773 89.1807 29.9522 89.1807 30.1464V33.1564L89.1795 33.1558Z" fill="#231F20"/>
<path d="M97.6279 33.1558V25.3879H100.282C100.498 25.3879 100.71 25.3931 100.918 25.4035C101.127 25.4145 101.332 25.44 101.533 25.4793C101.735 25.5191 101.931 25.5787 102.121 25.6578C102.311 25.737 102.497 25.8411 102.677 25.9711C102.936 26.1578 103.149 26.3855 103.313 26.656C103.479 26.9259 103.61 27.2097 103.707 27.5079C103.804 27.8067 103.873 28.1084 103.912 28.4142C103.951 28.7205 103.971 29.002 103.971 29.2615C103.971 29.521 103.955 29.7828 103.922 30.0487C103.89 30.3151 103.838 30.5763 103.766 30.8306C103.694 31.0861 103.599 31.3306 103.48 31.5641C103.361 31.7982 103.212 32.0114 103.033 32.2056C102.853 32.4073 102.657 32.5697 102.445 32.6911C102.233 32.8136 102.009 32.909 101.776 32.9772C101.542 33.046 101.299 33.0922 101.048 33.1177C100.796 33.1431 100.541 33.1552 100.282 33.1552H97.6279V33.1558ZM98.3613 32.5304H100.12C100.45 32.5304 100.762 32.5102 101.053 32.4709C101.345 32.431 101.641 32.3328 101.944 32.1744C102.203 32.0449 102.415 31.8687 102.58 31.6462C102.746 31.4225 102.876 31.1797 102.973 30.9179C103.071 30.6549 103.139 30.3798 103.179 30.0926C103.217 29.8048 103.238 29.5279 103.238 29.262C103.238 28.9817 103.22 28.6956 103.184 28.4043C103.148 28.113 103.079 27.8368 102.979 27.5738C102.879 27.3114 102.742 27.0704 102.569 26.8508C102.397 26.6317 102.174 26.4502 101.9 26.3063C101.67 26.1844 101.397 26.1052 101.081 26.0688C100.764 26.033 100.444 26.015 100.121 26.015H98.3619V32.5322L98.3613 32.5304Z" fill="#231F20"/>
<path d="M105.385 26.3479V25.3879H106.097V26.3479H105.385ZM105.418 33.1558V27.5674H106.064V33.1558H105.418Z" fill="#231F20"/>
<path d="M112.031 27.5675H112.679V32.6166C112.679 32.9911 112.64 33.3489 112.565 33.6904C112.49 34.032 112.354 34.332 112.16 34.5915C111.967 34.8498 111.7 35.0568 111.362 35.2116C111.023 35.3665 110.589 35.444 110.056 35.444C109.647 35.444 109.293 35.392 108.999 35.2874C108.703 35.1833 108.463 35.0521 108.276 34.8938C108.089 34.7354 107.947 34.5614 107.85 34.3707C107.753 34.18 107.7 34.0014 107.694 33.8367H108.384C108.434 34.0453 108.513 34.2164 108.621 34.3493C108.729 34.4823 108.857 34.5869 109.004 34.6626C109.152 34.7383 109.315 34.7903 109.496 34.8186C109.675 34.8475 109.863 34.862 110.056 34.862C110.495 34.862 110.847 34.7863 111.113 34.6354C111.379 34.4846 111.58 34.2863 111.717 34.0413C111.854 33.7968 111.942 33.5199 111.982 33.2107C112.021 32.9021 112.038 32.5854 112.03 32.2617C111.821 32.6068 111.535 32.8674 111.172 33.0437C110.809 33.2194 110.43 33.3073 110.034 33.3073C109.609 33.3073 109.241 33.2263 108.928 33.0651C108.616 32.9027 108.357 32.6871 108.152 32.4172C107.947 32.1473 107.794 31.8329 107.693 31.4728C107.592 31.1133 107.542 30.7394 107.542 30.3515C107.542 29.9412 107.588 29.5568 107.682 29.1968C107.776 28.8373 107.925 28.5263 108.131 28.2633C108.335 28.001 108.596 27.794 108.913 27.6432C109.229 27.4923 109.614 27.4166 110.067 27.4166C110.246 27.4166 110.43 27.4415 110.616 27.4923C110.804 27.5426 110.986 27.6149 111.162 27.7085C111.338 27.8021 111.5 27.9206 111.648 28.0639C111.795 28.2079 111.915 28.3697 112.008 28.5494H112.03V27.5675H112.031ZM112.031 30.3833C112.031 30.0446 111.99 29.7302 111.906 29.4389C111.823 29.1476 111.703 28.8968 111.545 28.6835C111.386 28.472 111.189 28.305 110.952 28.1824C110.714 28.0599 110.444 27.9986 110.143 27.9986C109.869 27.9986 109.617 28.0472 109.387 28.1443C109.157 28.2414 108.955 28.3841 108.783 28.5708C108.61 28.7575 108.476 28.9864 108.379 29.2557C108.281 29.5256 108.233 29.836 108.233 30.1891C108.218 30.5417 108.247 30.8706 108.319 31.1763C108.391 31.4826 108.506 31.7502 108.665 31.9802C108.823 32.2103 109.025 32.3918 109.269 32.5247C109.513 32.6582 109.804 32.7247 110.143 32.7247C110.438 32.7247 110.701 32.6611 110.935 32.5357C111.17 32.4102 111.367 32.2403 111.53 32.0282C111.691 31.8161 111.815 31.5682 111.902 31.2844C111.988 31.0006 112.031 30.7 112.031 30.3833H112.031Z" fill="#231F20"/>
<path d="M114.371 26.3479V25.3879H115.084V26.3479H114.371ZM114.404 33.1558V27.5674H115.051V33.1558H114.404Z" fill="#231F20"/>
<path d="M118.666 33.1772C118.586 33.1916 118.482 33.2171 118.352 33.2529C118.223 33.2887 118.079 33.3067 117.921 33.3067C117.597 33.3067 117.35 33.2257 117.181 33.0645C117.013 32.9021 116.928 32.6125 116.928 32.1958V28.1067H116.141V27.5675H116.928V26.0133H117.575V27.5675H118.622V28.1067H117.575V31.9363C117.575 32.0733 117.578 32.1918 117.586 32.2929C117.593 32.394 117.614 32.4761 117.651 32.5409C117.687 32.6056 117.742 32.6524 117.817 32.6813C117.893 32.7096 117.999 32.7246 118.136 32.7246C118.222 32.7246 118.31 32.7171 118.4 32.7033C118.49 32.6888 118.579 32.6703 118.665 32.6495V33.1778L118.666 33.1772Z" fill="#231F20"/>
<path d="M122.269 29.8978C122.391 29.8834 122.537 29.862 122.706 29.8331C122.875 29.8048 123.013 29.7649 123.122 29.7152C123.229 29.6643 123.296 29.5799 123.321 29.4609C123.346 29.3418 123.359 29.2331 123.359 29.132C123.359 28.8008 123.252 28.5298 123.04 28.3171C122.828 28.1055 122.47 27.9986 121.967 27.9986C121.744 27.9986 121.538 28.0188 121.352 28.0581C121.165 28.0974 121.001 28.1656 120.861 28.2627C120.72 28.3598 120.605 28.4893 120.516 28.6511C120.426 28.8135 120.366 29.0164 120.338 29.2609H119.68C119.701 28.9297 119.777 28.6477 119.906 28.4136C120.036 28.1807 120.203 27.9894 120.408 27.842C120.613 27.6946 120.85 27.5865 121.12 27.5183C121.39 27.4495 121.675 27.416 121.978 27.416C122.258 27.416 122.523 27.4466 122.771 27.5073C123.019 27.5686 123.235 27.6657 123.419 27.7986C123.602 27.9321 123.746 28.1102 123.85 28.3327C123.955 28.5563 124.007 28.8286 124.007 29.1528V32.1952C124.007 32.4472 124.052 32.6067 124.141 32.6755C124.232 32.7437 124.414 32.7275 124.687 32.627V33.1333C124.636 33.1483 124.562 33.1691 124.465 33.198C124.369 33.2263 124.273 33.2413 124.18 33.2413C124.078 33.2413 123.981 33.2303 123.888 33.2084C123.78 33.1939 123.694 33.1598 123.629 33.1061C123.565 33.0523 123.512 32.987 123.473 32.9119C123.433 32.8362 123.406 32.7541 123.392 32.6639C123.377 32.5744 123.37 32.4784 123.37 32.3778C123.097 32.6807 122.784 32.9107 122.431 33.0691C122.079 33.2269 121.698 33.3061 121.288 33.3061C121.043 33.3061 120.808 33.2737 120.581 33.209C120.354 33.1448 120.155 33.0437 119.982 32.9073C119.809 32.7709 119.673 32.6033 119.571 32.4062C119.471 32.2079 119.421 31.9727 119.421 31.6993C119.421 30.7497 120.071 30.1885 121.374 30.0163L122.269 29.8972V29.8978ZM123.359 30.2215C123.085 30.3365 122.809 30.4122 122.528 30.4486C122.248 30.4844 121.967 30.5128 121.687 30.5347C121.191 30.5705 120.804 30.6827 120.527 30.8694C120.251 31.056 120.112 31.3398 120.112 31.7219C120.112 31.8947 120.146 32.0438 120.215 32.1692C120.283 32.2946 120.372 32.3992 120.485 32.4825C120.596 32.5645 120.725 32.6258 120.873 32.6657C121.02 32.7056 121.169 32.7252 121.32 32.7252C121.58 32.7252 121.831 32.6923 122.076 32.6281C122.32 32.5634 122.538 32.4645 122.728 32.3316C122.918 32.1981 123.072 32.0288 123.187 31.8242C123.302 31.619 123.359 31.3757 123.359 31.0959V30.222L123.359 30.2215Z" fill="#231F20"/>
<path d="M125.797 33.1558V25.3879H126.444V33.1558H125.797Z" fill="#231F20"/>
<path d="M131.494 30.8359C131.522 31.1821 131.6 31.4745 131.726 31.7149C131.851 31.9565 132.014 32.1519 132.211 32.3027C132.409 32.4542 132.637 32.5634 132.896 32.6322C133.155 32.7004 133.432 32.7345 133.726 32.7345C134.071 32.7345 134.37 32.6911 134.622 32.605C134.874 32.5183 135.079 32.4016 135.237 32.2536C135.396 32.1062 135.512 31.9351 135.587 31.7409C135.664 31.5473 135.701 31.3421 135.701 31.126C135.701 30.8243 135.632 30.5798 135.496 30.3925C135.359 30.2059 135.181 30.0527 134.962 29.9348C134.742 29.8157 134.49 29.7204 134.207 29.6487C133.923 29.577 133.632 29.5065 133.333 29.4377C133.035 29.3695 132.743 29.2892 132.459 29.195C132.175 29.1014 131.923 28.976 131.704 28.8176C131.484 28.6592 131.306 28.4558 131.17 28.2078C131.033 27.9599 130.965 27.6455 130.965 27.2634C130.965 26.9976 131.021 26.7392 131.132 26.4872C131.244 26.2352 131.41 26.0121 131.63 25.8179C131.849 25.6238 132.123 25.4689 132.454 25.3538C132.785 25.2388 133.166 25.181 133.598 25.181C134.03 25.181 134.42 25.2423 134.747 25.3648C135.074 25.4874 135.346 25.6538 135.561 25.8659C135.778 26.078 135.939 26.3248 136.047 26.6057C136.155 26.886 136.209 27.1848 136.209 27.501H135.508C135.508 27.2056 135.456 26.9513 135.352 26.7352C135.247 26.519 135.105 26.3427 134.925 26.2063C134.746 26.0694 134.54 25.9694 134.31 25.9046C134.08 25.8399 133.843 25.8076 133.598 25.8076C133.224 25.8076 132.909 25.8596 132.654 25.9636C132.399 26.0682 132.196 26.2029 132.045 26.3688C131.893 26.5341 131.789 26.7178 131.731 26.9184C131.673 27.1201 131.662 27.3218 131.698 27.5229C131.742 27.7749 131.842 27.9767 132.001 28.1275C132.159 28.2784 132.353 28.4026 132.584 28.4997C132.814 28.5968 133.067 28.676 133.344 28.7373C133.621 28.7985 133.903 28.8627 134.191 28.9314C134.479 28.9996 134.757 29.08 135.028 29.1736C135.298 29.2678 135.537 29.3932 135.745 29.5516C135.954 29.71 136.121 29.9134 136.246 30.1614C136.372 30.4093 136.435 30.7208 136.435 31.0948C136.435 31.8143 136.187 32.3715 135.691 32.7668C135.194 33.1627 134.497 33.361 133.598 33.361C133.195 33.361 132.821 33.309 132.476 33.2044C132.131 33.1003 131.832 32.942 131.58 32.7298C131.328 32.5177 131.132 32.2548 130.993 31.9427C130.852 31.6294 130.782 31.2612 130.782 30.8364H131.494V30.8359Z" fill="#231F20"/>
<path d="M137.751 26.3479V25.3879H138.463V26.3479H137.751ZM137.784 33.1558V27.5674H138.43V33.1558H137.784Z" fill="#231F20"/>
<path d="M144.397 27.5675H145.045V32.6166C145.045 32.9911 145.007 33.3489 144.932 33.6904C144.856 34.032 144.721 34.332 144.527 34.5915C144.333 34.8498 144.067 35.0568 143.729 35.2116C143.39 35.3665 142.955 35.444 142.422 35.444C142.013 35.444 141.66 35.392 141.365 35.2874C141.07 35.1833 140.829 35.0521 140.643 34.8938C140.456 34.7354 140.313 34.5614 140.216 34.3707C140.119 34.18 140.067 34.0014 140.06 33.8367H140.75C140.801 34.0453 140.88 34.2164 140.988 34.3493C141.095 34.4823 141.223 34.5869 141.37 34.6626C141.518 34.7383 141.682 34.7903 141.862 34.8186C142.041 34.8475 142.229 34.862 142.422 34.862C142.862 34.862 143.214 34.7863 143.48 34.6354C143.746 34.4846 143.947 34.2863 144.083 34.0413C144.22 33.7968 144.308 33.5199 144.348 33.2107C144.388 32.9021 144.404 32.5854 144.397 32.2617C144.188 32.6068 143.902 32.8674 143.539 33.0437C143.176 33.2194 142.796 33.3073 142.401 33.3073C141.976 33.3073 141.607 33.2263 141.295 33.0651C140.983 32.9027 140.723 32.6871 140.519 32.4172C140.313 32.1473 140.161 31.8329 140.06 31.4728C139.958 31.1133 139.909 30.7394 139.909 30.3515C139.909 29.9412 139.955 29.5568 140.049 29.1968C140.142 28.8373 140.291 28.5263 140.497 28.2633C140.702 28.001 140.962 27.794 141.279 27.6432C141.595 27.4923 141.98 27.4166 142.433 27.4166C142.612 27.4166 142.796 27.4415 142.983 27.4923C143.17 27.5426 143.352 27.6149 143.529 27.7085C143.704 27.8021 143.866 27.9206 144.014 28.0639C144.161 28.2079 144.282 28.3697 144.375 28.5494H144.396V27.5675H144.397ZM144.397 30.3833C144.397 30.0446 144.356 29.7302 144.273 29.4389C144.19 29.1476 144.07 28.8968 143.911 28.6835C143.753 28.472 143.556 28.305 143.318 28.1824C143.081 28.0599 142.811 27.9986 142.509 27.9986C142.236 27.9986 141.984 28.0472 141.754 28.1443C141.524 28.2414 141.322 28.3841 141.149 28.5708C140.976 28.7575 140.842 28.9864 140.745 29.2557C140.648 29.5256 140.599 29.836 140.599 30.1891C140.585 30.5417 140.614 30.8706 140.686 31.1763C140.758 31.4826 140.873 31.7502 141.032 31.9802C141.19 32.2103 141.391 32.3918 141.635 32.5247C141.88 32.6582 142.171 32.7247 142.509 32.7247C142.804 32.7247 143.068 32.6611 143.302 32.5357C143.536 32.4102 143.734 32.2403 143.896 32.0282C144.057 31.8161 144.182 31.5682 144.268 31.2844C144.354 31.0006 144.398 30.7 144.398 30.3833H144.397Z" fill="#231F20"/>
<path d="M147.321 33.1558H146.674V27.5675H147.321V28.3443C147.58 28.0709 147.847 27.8472 148.125 27.675C148.402 27.5022 148.734 27.4166 149.123 27.4166C149.468 27.4166 149.787 27.4756 150.083 27.5946C150.378 27.7137 150.626 27.9206 150.828 28.2148C150.964 28.4165 151.045 28.6234 151.07 28.8355C151.095 29.0476 151.108 29.269 151.108 29.499V33.1564H150.461V29.51C150.461 29.0066 150.349 28.6292 150.127 28.3772C149.903 28.1252 149.534 27.9992 149.015 27.9992C148.814 27.9992 148.63 28.0299 148.466 28.0911C148.3 28.1524 148.151 28.2333 148.018 28.3339C147.885 28.435 147.771 28.55 147.678 28.6789C147.585 28.8089 147.513 28.9448 147.462 29.0893C147.398 29.2696 147.358 29.4418 147.343 29.6071C147.329 29.773 147.322 29.9522 147.322 30.1464V33.1564L147.321 33.1558Z" fill="#231F20"/>
<path d="M155.24 29.8978C155.362 29.8834 155.508 29.862 155.677 29.8331C155.846 29.8048 155.984 29.7649 156.093 29.7152C156.2 29.6643 156.266 29.5799 156.292 29.4609C156.317 29.3418 156.329 29.2331 156.329 29.132C156.329 28.8008 156.223 28.5298 156.011 28.3171C155.799 28.1055 155.441 27.9986 154.937 27.9986C154.715 27.9986 154.509 28.0188 154.322 28.0581C154.136 28.0974 153.972 28.1656 153.832 28.2627C153.691 28.3598 153.576 28.4893 153.486 28.6511C153.397 28.813 153.337 29.0164 153.308 29.2609H152.65C152.672 28.9297 152.747 28.6477 152.877 28.4136C153.006 28.1807 153.173 27.9894 153.379 27.842C153.584 27.6946 153.821 27.5865 154.091 27.5183C154.361 27.4495 154.646 27.416 154.949 27.416C155.229 27.416 155.493 27.4466 155.742 27.5073C155.99 27.5686 156.206 27.6657 156.39 27.7986C156.573 27.9321 156.717 28.1102 156.821 28.3327C156.925 28.5563 156.977 28.8286 156.977 29.1528V32.1952C156.977 32.4472 157.022 32.6067 157.112 32.6755C157.202 32.7437 157.384 32.7275 157.658 32.627V33.1333C157.607 33.1483 157.533 33.1691 157.436 33.198C157.339 33.2263 157.244 33.2413 157.15 33.2413C157.049 33.2413 156.952 33.2303 156.859 33.2084C156.751 33.1939 156.665 33.1598 156.599 33.1061C156.535 33.0523 156.483 32.987 156.443 32.9119C156.403 32.8362 156.377 32.7541 156.362 32.6639C156.347 32.5744 156.341 32.4784 156.341 32.3778C156.068 32.6807 155.754 32.9107 155.402 33.0691C155.05 33.2269 154.668 33.3061 154.259 33.3061C154.014 33.3061 153.778 33.2737 153.552 33.209C153.325 33.1448 153.125 33.0437 152.952 32.9073C152.78 32.7703 152.643 32.6033 152.542 32.4062C152.442 32.2079 152.391 31.9727 152.391 31.6993C152.391 30.7497 153.042 30.1885 154.344 30.0163L155.24 29.8972V29.8978ZM156.329 30.2215C156.056 30.3365 155.78 30.4122 155.499 30.4486C155.219 30.4844 154.938 30.5128 154.657 30.5347C154.162 30.5705 153.774 30.6827 153.497 30.8694C153.221 31.056 153.083 31.3398 153.083 31.7219C153.083 31.8947 153.117 32.0438 153.185 32.1692C153.254 32.2946 153.343 32.3992 153.455 32.4825C153.567 32.5645 153.696 32.6258 153.844 32.6657C153.991 32.7056 154.14 32.7252 154.291 32.7252C154.551 32.7252 154.801 32.6923 155.046 32.6281C155.291 32.5634 155.508 32.4645 155.698 32.3316C155.889 32.1981 156.042 32.0288 156.157 31.8242C156.272 31.619 156.33 31.3757 156.33 31.0959V30.222L156.329 30.2215Z" fill="#231F20"/>
<path d="M162.987 27.5675H163.635V32.6166C163.635 32.9911 163.597 33.3489 163.522 33.6904C163.446 34.032 163.311 34.332 163.116 34.5915C162.923 34.8498 162.656 35.0568 162.318 35.2116C161.98 35.3665 161.545 35.444 161.012 35.444C160.603 35.444 160.25 35.392 159.955 35.2874C159.66 35.1833 159.419 35.0521 159.233 34.8938C159.045 34.7354 158.903 34.5614 158.806 34.3707C158.709 34.18 158.656 34.0014 158.65 33.8367H159.34C159.39 34.0453 159.469 34.2164 159.578 34.3493C159.685 34.4823 159.813 34.5869 159.96 34.6626C160.108 34.7383 160.272 34.7903 160.452 34.8186C160.631 34.8475 160.819 34.862 161.012 34.862C161.451 34.862 161.803 34.7863 162.07 34.6354C162.336 34.4846 162.537 34.2863 162.673 34.0413C162.81 33.7968 162.898 33.5199 162.938 33.2107C162.978 32.9021 162.994 32.5854 162.986 32.2617C162.778 32.6068 162.492 32.8674 162.129 33.0437C161.766 33.2194 161.386 33.3073 160.991 33.3073C160.565 33.3073 160.197 33.2263 159.884 33.0651C159.572 32.9027 159.313 32.6871 159.108 32.4172C158.903 32.1473 158.75 31.8329 158.649 31.4728C158.548 31.1133 158.498 30.7394 158.498 30.3515C158.498 29.9412 158.545 29.5568 158.638 29.1968C158.732 28.8373 158.881 28.5263 159.087 28.2633C159.291 28.001 159.552 27.794 159.869 27.6432C160.185 27.4923 160.57 27.4166 161.023 27.4166C161.202 27.4166 161.386 27.4415 161.573 27.4923C161.76 27.5426 161.942 27.6149 162.118 27.7085C162.294 27.8021 162.456 27.9206 162.604 28.0639C162.751 28.2079 162.871 28.3697 162.964 28.5494H162.986V27.5675H162.987ZM162.987 30.3833C162.987 30.0446 162.946 29.7302 162.863 29.4389C162.779 29.1476 162.659 28.8968 162.501 28.6835C162.343 28.472 162.145 28.305 161.908 28.1824C161.67 28.0599 161.4 27.9986 161.099 27.9986C160.825 27.9986 160.573 28.0472 160.343 28.1443C160.113 28.2414 159.912 28.3841 159.739 28.5708C159.566 28.7575 159.432 28.9864 159.335 29.2557C159.238 29.5256 159.189 29.836 159.189 30.1891C159.175 30.5417 159.204 30.8706 159.275 31.1763C159.348 31.4826 159.463 31.7502 159.621 31.9802C159.779 32.2103 159.981 32.3918 160.225 32.5247C160.469 32.6582 160.761 32.7247 161.099 32.7247C161.394 32.7247 161.658 32.6611 161.892 32.5357C162.126 32.4102 162.323 32.2403 162.486 32.0282C162.647 31.8161 162.771 31.5682 162.858 31.2844C162.944 31.0006 162.988 30.7 162.988 30.3833H162.987Z" fill="#231F20"/>
<path d="M165.662 30.5122C165.662 30.8151 165.702 31.1 165.782 31.3699C165.861 31.6398 165.977 31.8733 166.132 32.0716C166.286 32.2698 166.483 32.427 166.72 32.5461C166.957 32.6651 167.23 32.7247 167.54 32.7247C167.964 32.7247 168.327 32.6125 168.629 32.39C168.932 32.1675 169.133 31.8508 169.234 31.4404H169.957C169.878 31.7063 169.773 31.9531 169.644 32.1791C169.514 32.4062 169.352 32.6033 169.158 32.7732C168.964 32.942 168.734 33.0738 168.468 33.1668C168.201 33.2604 167.892 33.3067 167.54 33.3067C167.094 33.3067 166.71 33.231 166.386 33.0801C166.062 32.9293 165.796 32.7224 165.587 32.46C165.379 32.197 165.224 31.8878 165.123 31.5323C165.022 31.1757 164.972 30.7937 164.972 30.3833C164.972 29.973 165.031 29.5886 165.15 29.2291C165.269 28.8691 165.438 28.5546 165.658 28.2847C165.877 28.0148 166.145 27.8027 166.462 27.6484C166.778 27.4935 167.138 27.4166 167.541 27.4166C168.31 27.4166 168.915 27.6802 169.353 28.2096C169.792 28.7384 170.008 29.506 170 30.5128H165.663L165.662 30.5122ZM169.309 29.973C169.309 29.6996 169.271 29.4424 169.196 29.202C169.12 28.9604 169.009 28.7523 168.862 28.576C168.714 28.3997 168.528 28.2593 168.306 28.1553C168.083 28.0507 167.828 27.9986 167.54 27.9986C167.252 27.9986 166.998 28.053 166.779 28.161C166.559 28.2685 166.373 28.413 166.218 28.5928C166.063 28.772 165.939 28.9812 165.846 29.2181C165.751 29.4557 165.69 29.7077 165.662 29.9735H169.308L169.309 29.973Z" fill="#231F20"/>
</svg>
