<svg width="411" height="377" viewBox="0 0 411 377" fill="none" xmlns="http://www.w3.org/2000/svg">
<g clip-path="url(#clip0_2195_41)">
<path d="M309.219 80.7112C278.23 26.2674 229.476 -4.06736 170.725 0.442725C111.974 4.95281 109.253 48.8824 109.253 98.0783C109.253 147.274 39.8123 124.023 17.6769 182.672C0.429657 228.373 45.3001 311.869 65.9598 346.53H359.033C370.396 307.249 391.065 229.941 393.306 179.905C397.337 89.9435 333.937 124.143 309.219 80.7112Z" fill="#92E3A9"/>
<path opacity="0.7" d="M309.219 80.7112C278.23 26.2674 229.476 -4.06736 170.725 0.442725C111.974 4.95281 109.253 48.8824 109.253 98.0783C109.253 147.274 39.8123 124.023 17.6769 182.672C0.429657 228.373 45.3001 311.869 65.9598 346.53H359.033C370.396 307.249 391.065 229.941 393.306 179.905C397.337 89.9435 333.937 124.143 309.219 80.7112Z" fill="white"/>
<path d="M284.984 283.591C284.984 283.591 303.891 226.722 280.151 279.238C280.151 279.238 271.776 233.529 273.962 283.407C273.962 283.407 249.484 245.131 270.125 291.726C270.125 291.726 238.352 257.85 271.158 301.991C271.158 301.991 335.222 298.773 285.445 296.577C285.445 296.577 343.403 272.026 288.166 289.688C288.166 289.688 337.555 240.778 284.993 283.582L284.984 283.591Z" fill="#92E3A9"/>
<path d="M280.953 284.855C280.953 284.855 268.206 302.812 263.613 321.424" stroke="#263238" stroke-width="0.691732" stroke-linecap="round" stroke-linejoin="round"/>
<path d="M246.037 285.418C246.037 285.418 201.453 250.305 240.614 288.323C240.614 288.323 197.21 281.101 242.339 295.176C242.339 295.176 200.373 304.685 248.518 301.263C248.518 301.263 208.13 318.676 257.99 303.642C257.99 303.642 275.708 245.537 257.76 289.181C257.76 289.181 254.513 229.664 252.493 284.551C252.493 284.551 224.796 224.84 246.037 285.418Z" fill="#92E3A9"/>
<path opacity="0.3" d="M246.037 285.418C246.037 285.418 201.453 250.305 240.614 288.323C240.614 288.323 197.21 281.101 242.339 295.176C242.339 295.176 200.373 304.685 248.518 301.263C248.518 301.263 208.13 318.676 257.99 303.642C257.99 303.642 275.708 245.537 257.76 289.181C257.76 289.181 254.513 229.664 252.493 284.551C252.493 284.551 224.796 224.84 246.037 285.418Z" fill="white"/>
<path d="M267.074 323.131C259.059 296.356 244.93 289.854 244.93 289.854" stroke="#263238" stroke-width="0.691732" stroke-linecap="round" stroke-linejoin="round"/>
<path d="M264.125 288.526C264.125 288.526 269.843 293.893 271.365 301.198C271.365 301.198 278.412 298.385 288.437 298.902" stroke="#263238" stroke-width="0.461155" stroke-linecap="round" stroke-linejoin="round"/>
<path d="M270.164 282.743C270.164 282.743 274.093 287.511 271.363 301.189L286.397 290.647" stroke="#263238" stroke-width="0.461155" stroke-linecap="round" stroke-linejoin="round"/>
<path d="M259.706 289.199C259.706 289.199 257.142 294.991 257.363 302.001C257.363 302.001 250.953 302.72 246.535 304.758" stroke="#263238" stroke-width="0.461155" stroke-linecap="round" stroke-linejoin="round"/>
<path d="M252.743 287.502C252.743 287.502 253.324 294.06 257.364 302.001C257.364 302.001 253.25 298.293 242.367 297.703" stroke="#263238" stroke-width="0.461155" stroke-linecap="round" stroke-linejoin="round"/>
<path d="M251.84 319.386H278.439L274.363 344.279H273.071V345.285C273.071 345.995 272.49 346.576 271.78 346.576H270.544C269.834 346.576 269.253 345.995 269.253 345.285V344.279H261.045V345.285C261.045 345.995 260.463 346.576 259.753 346.576H258.517C257.807 346.576 257.226 345.995 257.226 345.285V344.279H255.935L251.858 319.386H251.84Z" fill="#263238" stroke="#263238" stroke-width="0.691732" stroke-linecap="round" stroke-linejoin="round"/>
<path d="M369.125 346.53H57.8456C39.0581 349.407 23.9876 353.124 28.7283 357.376C39.796 367.309 119.502 355.707 117.15 367.208C114.807 378.709 174.582 375.859 207.103 375.859C239.624 375.859 275.124 372.806 263.696 363.98C252.278 355.153 328.119 361.6 360.732 361.6C384.519 361.6 400.834 354.96 369.125 346.53Z" fill="#92E3A9"/>
<path d="M0.347519 346.53H410.647" stroke="#263238" stroke-width="0.691732" stroke-linecap="round" stroke-linejoin="round"/>
<path d="M295.522 22.1538H137.364C133.157 22.1538 129.746 25.5646 129.746 29.7721V237.799C129.746 242.006 133.157 245.417 137.364 245.417H295.522C299.73 245.417 303.14 242.006 303.14 237.799V29.7721C303.14 25.5646 299.73 22.1538 295.522 22.1538Z" fill="#263238" stroke="#263238" stroke-width="0.922309" stroke-linecap="round" stroke-linejoin="round"/>
<path d="M292.757 18.8796H134.599C130.391 18.8796 126.98 22.2905 126.98 26.4979V234.525C126.98 238.732 130.391 242.143 134.599 242.143H292.757C296.964 242.143 300.375 238.732 300.375 234.525V26.4979C300.375 22.2905 296.964 18.8796 292.757 18.8796Z" fill="#92E3A9"/>
<mask id="mask0_2195_41" style="mask-type:luminance" maskUnits="userSpaceOnUse" x="126" y="18" width="175" height="225">
<path d="M292.76 18.8796H134.603C130.395 18.8796 126.984 22.2905 126.984 26.4979V234.525C126.984 238.732 130.395 242.143 134.603 242.143H292.76C296.968 242.143 300.379 238.732 300.379 234.525V26.4979C300.379 22.2905 296.968 18.8796 292.76 18.8796Z" fill="white"/>
</mask>
<g mask="url(#mask0_2195_41)">
<path opacity="0.8" d="M292.76 18.8796H134.603C130.395 18.8796 126.984 22.2905 126.984 26.4979V234.525C126.984 238.732 130.395 242.143 134.603 242.143H292.76C296.968 242.143 300.379 238.732 300.379 234.525V26.4979C300.379 22.2905 296.968 18.8796 292.76 18.8796Z" fill="white"/>
</g>
<path d="M292.757 18.8796H134.599C130.391 18.8796 126.98 22.2905 126.98 26.4979V234.525C126.98 238.732 130.391 242.143 134.599 242.143H292.757C296.964 242.143 300.375 238.732 300.375 234.525V26.4979C300.375 22.2905 296.964 18.8796 292.757 18.8796Z" stroke="#263238" stroke-width="0.922309" stroke-linecap="round" stroke-linejoin="round"/>
<path d="M292.993 50.7822H134.355V112.651H292.993V50.7822Z" fill="white" stroke="#263238" stroke-width="0.922309" stroke-linecap="round" stroke-linejoin="round"/>
<path d="M292.993 112.651L134.355 50.7822" stroke="#263238" stroke-width="0.691732" stroke-linecap="round" stroke-linejoin="round"/>
<path d="M134.355 112.651L292.993 50.7822" stroke="#263238" stroke-width="0.691732" stroke-linecap="round" stroke-linejoin="round"/>
<path d="M213.678 125.185H134.359V187.053H213.678V125.185Z" fill="#92E3A9"/>
<mask id="mask1_2195_41" style="mask-type:luminance" maskUnits="userSpaceOnUse" x="134" y="125" width="80" height="63">
<path d="M213.682 125.185H134.363V187.053H213.682V125.185Z" fill="white"/>
</mask>
<g mask="url(#mask1_2195_41)">
<path opacity="0.5" d="M213.682 125.185H134.363V187.053H213.682V125.185Z" fill="white"/>
</g>
<path d="M213.678 125.185H134.359V187.053H213.678V125.185Z" stroke="#263238" stroke-width="0.922309" stroke-linecap="round" stroke-linejoin="round"/>
<path d="M248.033 29.5508H179.321C178.557 29.5508 177.938 30.1702 177.938 30.9342C177.938 31.6983 178.557 32.3177 179.321 32.3177H248.033C248.797 32.3177 249.417 31.6983 249.417 30.9342C249.417 30.1702 248.797 29.5508 248.033 29.5508Z" fill="#263238" stroke="#263238" stroke-width="0.691732" stroke-linecap="round" stroke-linejoin="round"/>
<path d="M291.611 127.952H222.899C222.134 127.952 221.516 127.334 221.516 126.568C221.516 125.803 222.134 125.185 222.899 125.185H291.611C292.377 125.185 292.995 125.803 292.995 126.568C292.995 127.334 292.377 127.952 291.611 127.952Z" fill="#263238" stroke="#263238" stroke-width="0.691732" stroke-linecap="round" stroke-linejoin="round"/>
<path d="M276.854 143.244H222.899C222.134 143.244 221.516 142.626 221.516 141.86C221.516 141.095 222.134 140.477 222.899 140.477H276.854C277.62 140.477 278.238 141.095 278.238 141.86C278.238 142.626 277.62 143.244 276.854 143.244Z" fill="#263238" stroke="#263238" stroke-width="0.691732" stroke-linecap="round" stroke-linejoin="round"/>
<path d="M269.706 151.295H222.899C222.135 151.295 221.516 151.915 221.516 152.679C221.516 153.443 222.135 154.062 222.899 154.062H269.706C270.47 154.062 271.09 153.443 271.09 152.679C271.09 151.915 270.47 151.295 269.706 151.295Z" fill="#263238" stroke="#263238" stroke-width="0.691732" stroke-linecap="round" stroke-linejoin="round"/>
<path d="M283.311 164.872H222.899C222.134 164.872 221.516 164.254 221.516 163.488C221.516 162.723 222.134 162.105 222.899 162.105H283.311C284.076 162.105 284.694 162.723 284.694 163.488C284.694 164.254 284.076 164.872 283.311 164.872Z" fill="#263238" stroke="#263238" stroke-width="0.691732" stroke-linecap="round" stroke-linejoin="round"/>
<path d="M277.546 175.681H222.899C222.134 175.681 221.516 175.063 221.516 174.298C221.516 173.532 222.134 172.914 222.899 172.914H277.546C278.312 172.914 278.93 173.532 278.93 174.298C278.93 175.063 278.312 175.681 277.546 175.681Z" fill="#263238" stroke="#263238" stroke-width="0.691732" stroke-linecap="round" stroke-linejoin="round"/>
<path d="M269.706 186.5H222.899C222.134 186.5 221.516 185.882 221.516 185.116C221.516 184.351 222.134 183.733 222.899 183.733H269.706C270.472 183.733 271.09 184.351 271.09 185.116C271.09 185.882 270.472 186.5 269.706 186.5Z" fill="#263238" stroke="#263238" stroke-width="0.691732" stroke-linecap="round" stroke-linejoin="round"/>
<path d="M258.406 41.6883H168.942C168.177 41.6883 167.559 41.0704 167.559 40.3048C167.559 39.5393 168.177 38.9214 168.942 38.9214H258.406C259.172 38.9214 259.79 39.5393 259.79 40.3048C259.79 41.0704 259.172 41.6883 258.406 41.6883Z" fill="#263238" stroke="#263238" stroke-width="0.691732" stroke-linecap="round" stroke-linejoin="round"/>
<path d="M213.675 232.606C221.825 232.606 228.432 225.999 228.432 217.849C228.432 209.699 221.825 203.092 213.675 203.092C205.525 203.092 198.918 209.699 198.918 217.849C198.918 225.999 205.525 232.606 213.675 232.606Z" fill="#00F500" stroke="#263238" stroke-width="0.691732" stroke-linecap="round" stroke-linejoin="round"/>
<path d="M169.405 232.606C177.555 232.606 184.162 225.999 184.162 217.849C184.162 209.699 177.555 203.092 169.405 203.092C161.255 203.092 154.648 209.699 154.648 217.849C154.648 225.999 161.255 232.606 169.405 232.606Z" fill="#00F500" stroke="#263238" stroke-width="0.922309" stroke-linecap="round" stroke-linejoin="round"/>
<path d="M257.948 232.606C266.098 232.606 272.705 225.999 272.705 217.849C272.705 209.699 266.098 203.092 257.948 203.092C249.798 203.092 243.191 209.699 243.191 217.849C243.191 225.999 249.798 232.606 257.948 232.606Z" fill="#00F500" stroke="#263238" stroke-width="0.922309" stroke-linecap="round" stroke-linejoin="round"/>
<path d="M252.517 151.849H227.762V117.77H245.793L252.517 124.493V151.849Z" fill="white" stroke="#263238" stroke-width="0.922309" stroke-linecap="round" stroke-linejoin="round"/>
<path d="M245.793 117.77V118.692V125.415H252.517V124.493L245.793 117.77Z" fill="#263238" stroke="#263238" stroke-width="0.691732" stroke-linecap="round" stroke-linejoin="round"/>
<path d="M245.793 124.493H252.517L245.793 117.77V124.493Z" fill="white" stroke="#263238" stroke-width="0.922309" stroke-linecap="round" stroke-linejoin="round"/>
<path d="M239.143 126.338H243.146L246.208 145.135H243.256L242.721 141.399V141.455H239.364L238.829 145.135H236.09L239.152 126.338H239.143ZM242.362 138.909L241.043 129.621H240.988L239.696 138.909H242.353H242.362Z" fill="#00F500"/>
<path d="M237.299 125.416H241.302L244.364 144.212H241.413L240.878 140.477V140.532H237.52L236.986 144.212H234.246L237.308 125.416H237.299ZM240.518 137.987L239.199 128.699H239.144L237.853 137.987H240.509H240.518Z" fill="white" stroke="#263238" stroke-width="0.691732" stroke-linecap="round" stroke-linejoin="round"/>
<path d="M326.254 213.155L342.856 275.844C342.856 275.844 343.086 282.761 346.314 288.065L350.852 340.894C350.852 340.894 354.311 346.198 366.762 340.894C366.762 340.894 367.297 303.052 362.685 279.533L358.765 234.728C358.765 234.728 360.306 225.348 358.074 213.588L326.254 213.155Z" fill="#263238"/>
<mask id="mask2_2195_41" style="mask-type:luminance" maskUnits="userSpaceOnUse" x="326" y="213" width="41" height="131">
<path d="M326.254 213.155L342.856 275.844C342.856 275.844 343.086 282.761 346.314 288.065L350.852 340.894C350.852 340.894 354.311 346.198 366.762 340.894C366.762 340.894 367.297 303.052 362.685 279.533L358.765 234.728C358.765 234.728 360.306 225.348 358.074 213.588L326.254 213.155Z" fill="white"/>
</mask>
<g mask="url(#mask2_2195_41)">
<path opacity="0.5" d="M353.546 212.131C353.546 212.131 354.994 227.976 346.518 239.035C338.041 250.093 341.242 262.71 340.633 275.466C340.015 288.222 331.871 242.106 331.871 242.106L344.479 210.591L353.546 212.131Z" fill="#1E293B"/>
</g>
<path d="M326.254 213.155L342.856 275.844C342.856 275.844 343.086 282.761 346.314 288.065L350.852 340.894C350.852 340.894 354.311 346.198 366.762 340.894C366.762 340.894 367.297 303.052 362.685 279.533L358.765 234.728C358.765 234.728 360.306 225.348 358.074 213.588L326.254 213.155Z" stroke="#263238" stroke-width="0.691732" stroke-linecap="round" stroke-linejoin="round"/>
<path d="M351.803 340.894C351.803 340.894 343.807 344.565 340.938 344.547C338.974 344.538 335.294 342.564 333.523 347.157C333.523 347.157 331.439 351.233 344.074 352.691C353.823 353.816 364.07 353.207 368.239 352.866C369.281 352.783 370.01 351.815 369.816 350.791L369.659 349.979C369.659 349.979 369.345 343.92 365.582 340.894H351.794H351.803Z" fill="#00F500" stroke="#263238" stroke-width="0.922309" stroke-linecap="round" stroke-linejoin="round"/>
<path d="M341.813 350.403C333.595 348.799 333.817 346.548 333.817 346.548C333.715 346.733 333.623 346.936 333.531 347.166C333.531 347.166 331.446 351.243 344.082 352.7C353.831 353.825 364.078 353.217 368.247 352.875C369.289 352.792 370.017 351.824 369.824 350.8L369.768 350.505L362.27 351.178C362.27 351.178 350.04 352.018 341.822 350.413L341.813 350.403Z" fill="white" stroke="#263238" stroke-width="0.691732" stroke-linecap="round" stroke-linejoin="round"/>
<path d="M351.629 277.633C351.629 277.633 354.663 281.461 360.732 280.944" stroke="#7F7F7F" stroke-width="0.691732" stroke-linecap="round" stroke-linejoin="round"/>
<path d="M310.356 210.591C310.356 210.591 306.206 221.428 313.815 267.774C313.815 267.774 312.432 272.155 315.199 280.917L318.888 310.661V340.175C318.888 340.175 321.424 346.401 336.412 340.175C336.412 340.175 336.873 287.834 335.259 276.766L338.791 242.991C339.123 239.8 340.839 236.95 343.421 235.05C346.714 232.625 350.938 227.543 351.63 217.241L310.356 210.6V210.591Z" fill="#263238" stroke="#263238" stroke-width="0.691732" stroke-linecap="round" stroke-linejoin="round"/>
<path d="M319.919 339.603C319.919 339.603 311.092 343.661 307.929 343.643C305.761 343.625 301.703 341.448 299.748 346.521C299.748 346.521 297.442 351.021 311.388 352.626C322.151 353.871 333.458 353.198 338.061 352.82C339.214 352.728 340.016 351.658 339.804 350.523L339.629 349.629C339.629 349.629 339.287 342.942 335.137 339.594H319.919V339.603Z" fill="#00F500" stroke="#263238" stroke-width="0.922309" stroke-linecap="round" stroke-linejoin="round"/>
<path d="M308.888 350.09C299.822 348.319 300.062 345.829 300.062 345.829C299.951 346.032 299.849 346.262 299.748 346.511C299.748 346.511 297.442 351.012 311.388 352.617C322.151 353.862 333.458 353.189 338.061 352.811C339.214 352.719 340.016 351.649 339.804 350.514L339.739 350.182L331.457 350.92C331.457 350.92 317.954 351.842 308.888 350.071V350.09Z" fill="white" stroke="#263238" stroke-width="0.691732" stroke-linecap="round" stroke-linejoin="round"/>
<path d="M321.887 274.461C321.887 274.461 325.502 278.786 332.724 278.196" stroke="#7F7F7F" stroke-width="0.691732" stroke-linecap="round" stroke-linejoin="round"/>
<path d="M328.533 93.9187C328.533 93.9187 321.072 97.2575 320.5 93.9187C320.5 93.9187 323.23 92.9964 325.038 90.4601C326.846 87.9237 336.069 88.6155 336.069 88.6155C336.069 88.6155 352.32 87.0937 350.245 95.4037C350.245 95.4037 356.701 101.5 351.167 110.391C345.633 119.282 342.451 122.243 342.451 122.243L336.954 121.357L329.262 97.9492L328.533 93.9095V93.9187Z" fill="#263238" stroke="#263238" stroke-width="0.691732" stroke-linecap="round" stroke-linejoin="round"/>
<path d="M329.669 128.321V124.816C329.669 124.816 323.684 125.748 322.863 124.198C322.042 122.649 323.379 116.266 323.379 116.266C323.379 116.266 320.492 116.368 320.492 115.03C320.492 113.693 323.896 108.021 323.896 108.021C323.896 108.021 323.481 103.483 323.896 102.044C324.311 100.605 328.535 92.4614 328.535 92.4614C328.535 92.4614 334.714 95.8555 334.511 97.7186C334.309 99.5724 332.556 101.325 333.995 102.874C335.434 104.424 337.398 108.593 336.78 110.576L337.712 111.221C337.712 111.221 338.228 107.513 340.285 106.896C342.342 106.278 343.993 110.4 342.554 113.287C341.115 116.174 339.464 115.657 339.464 115.657C339.464 115.657 340.285 120.601 342.453 122.252L343.098 127.408L329.669 128.339V128.321Z" fill="white"/>
<mask id="mask3_2195_41" style="mask-type:luminance" maskUnits="userSpaceOnUse" x="320" y="92" width="24" height="37">
<path d="M329.673 128.321V124.816C329.673 124.816 323.687 125.748 322.866 124.198C322.046 122.649 323.383 116.266 323.383 116.266C323.383 116.266 320.496 116.368 320.496 115.03C320.496 113.693 323.899 108.021 323.899 108.021C323.899 108.021 323.484 103.483 323.899 102.044C324.314 100.605 328.539 92.4614 328.539 92.4614C328.539 92.4614 334.718 95.8555 334.515 97.7186C334.312 99.5724 332.56 101.325 333.999 102.874C335.437 104.424 337.402 108.593 336.784 110.576L337.716 111.221C337.716 111.221 338.232 107.513 340.289 106.896C342.346 106.278 343.997 110.4 342.558 113.287C341.119 116.174 339.468 115.657 339.468 115.657C339.468 115.657 340.289 120.601 342.456 122.252L343.102 127.408L329.673 128.339V128.321Z" fill="white"/>
</mask>
<g mask="url(#mask3_2195_41)">
<path d="M322.863 124.207C322.863 124.207 325.916 124.982 332.603 122.252C339.289 119.522 339.455 115.657 339.455 115.657L339.751 116.183C339.751 116.183 339.179 122.252 329.67 124.834C321.996 126.91 321.996 125.406 321.996 125.406L322.863 124.216V124.207Z" fill="#263238" stroke="#263238" stroke-width="0.461155" stroke-linecap="round" stroke-linejoin="round"/>
</g>
<path d="M329.669 128.321V124.816C329.669 124.816 323.684 125.748 322.863 124.198C322.042 122.649 323.379 116.266 323.379 116.266C323.379 116.266 320.492 116.368 320.492 115.03C320.492 113.693 323.896 108.021 323.896 108.021C323.896 108.021 323.481 103.483 323.896 102.044C324.311 100.605 328.535 92.4614 328.535 92.4614C328.535 92.4614 334.714 95.8555 334.511 97.7186C334.309 99.5724 332.556 101.325 333.995 102.874C335.434 104.424 337.398 108.593 336.78 110.576L337.712 111.221C337.712 111.221 338.228 107.513 340.285 106.896C342.342 106.278 343.993 110.4 342.554 113.287C341.115 116.174 339.464 115.657 339.464 115.657C339.464 115.657 340.285 120.601 342.453 122.252L343.098 127.408L329.669 128.339V128.321Z" stroke="#263238" stroke-width="0.922309" stroke-linecap="round" stroke-linejoin="round"/>
<path d="M329.363 116.266C329.363 116.266 328.32 119.596 325 117.816" stroke="#263238" stroke-width="0.691732" stroke-linecap="round" stroke-linejoin="round"/>
<path d="M325.699 103.391C325.699 103.391 327.811 103.077 328.531 105.245" stroke="#263238" stroke-width="0.691732" stroke-linecap="round" stroke-linejoin="round"/>
<path d="M325.031 106.896C325.031 107.578 325.336 108.131 325.705 108.131C326.074 108.131 326.378 107.578 326.378 106.896C326.378 106.213 326.074 105.66 325.705 105.66C325.336 105.66 325.031 106.213 325.031 106.896Z" fill="#2E353A"/>
<path d="M363.962 148.427C363.962 148.427 381.366 184.277 377.676 189.83C373.987 195.382 358.077 213.598 358.077 213.598L351.621 206.219L364.534 184.296L357.847 170.71C357.847 170.71 354.849 160.048 363.962 148.427Z" fill="#00F500"/>
<mask id="mask4_2195_41" style="mask-type:luminance" maskUnits="userSpaceOnUse" x="351" y="148" width="28" height="66">
<path d="M363.962 148.427C363.962 148.427 381.366 184.277 377.676 189.83C373.987 195.382 358.077 213.598 358.077 213.598L351.621 206.219L364.534 184.296L357.847 170.71C357.847 170.71 354.849 160.048 363.962 148.427Z" fill="white"/>
</mask>
<g mask="url(#mask4_2195_41)">
<path opacity="0.2" d="M364.745 154.376C364.745 154.376 365.87 166.551 364.745 172.776C363.62 179.002 370.629 179.675 369.772 183.374C368.923 187.072 357.394 192.449 358.086 213.588C358.778 234.728 350.246 177.628 350.246 177.628L356.472 155.142L360.853 149.257L364.745 154.376Z" fill="#1E293B"/>
</g>
<path d="M363.962 148.427C363.962 148.427 381.366 184.277 377.676 189.83C373.987 195.382 358.077 213.598 358.077 213.598L351.621 206.219L364.534 184.296L357.847 170.71C357.847 170.71 354.849 160.048 363.962 148.427Z" stroke="#263238" stroke-width="0.922309" stroke-linecap="round" stroke-linejoin="round"/>
<path d="M366.785 183.789C366.785 183.789 369.755 182.866 372.753 183.789" stroke="#263238" stroke-width="0.691732" stroke-linecap="round" stroke-linejoin="round"/>
<path d="M325.57 133.578L329.721 126.79C329.721 126.79 341.25 122.077 347.014 126.79L350.242 135.884L325.57 133.578Z" fill="#00F500" stroke="#263238" stroke-width="0.922309" stroke-linecap="round" stroke-linejoin="round"/>
<path d="M308.969 212.749L312.418 184.462L311.016 141.998C310.887 138.189 313.368 134.786 317.03 133.725C328.743 130.331 353.821 126.162 363.966 148.427C364.815 150.29 365.091 152.365 364.741 154.385L357.851 193.998L359.696 215.599C359.696 215.599 337.256 232.117 308.969 212.749Z" fill="#00F500"/>
<mask id="mask5_2195_41" style="mask-type:luminance" maskUnits="userSpaceOnUse" x="308" y="131" width="57" height="92">
<path d="M308.969 212.749L312.418 184.462L311.016 141.998C310.887 138.189 313.368 134.786 317.03 133.725C328.743 130.331 353.821 126.162 363.966 148.427C364.815 150.29 365.091 152.365 364.741 154.385L357.851 193.998L359.696 215.599C359.696 215.599 337.256 232.117 308.969 212.749Z" fill="white"/>
</mask>
<g mask="url(#mask5_2195_41)">
<path opacity="0.2" d="M318.682 140.477C318.682 140.477 325.101 148.538 318.682 164.244C312.263 179.951 340.32 187.228 340.32 190.613C340.32 193.998 350.926 192.209 351.618 195.64C352.31 199.071 337.322 202.299 337.903 210.6C338.484 218.9 355.307 218.089 355.307 218.089L345.162 228.585L309.302 227.662L292.59 210.6L303.888 177.636L309.219 151.655L311.009 142.008L318.682 140.495V140.477Z" fill="#1E293B"/>
</g>
<path d="M308.969 212.749L312.418 184.462L311.016 141.998C310.887 138.189 313.368 134.786 317.03 133.725C328.743 130.331 353.821 126.162 363.966 148.427C364.815 150.29 365.091 152.365 364.741 154.385L357.851 193.998L359.696 215.599C359.696 215.599 337.256 232.117 308.969 212.749Z" stroke="#263238" stroke-width="0.922309" stroke-linecap="round" stroke-linejoin="round"/>
<path d="M355.319 194.911C355.319 194.911 320.732 202.29 318.888 194.911C317.043 187.533 328.572 192.145 337.906 190.992" stroke="#263238" stroke-width="0.691732" stroke-linecap="round" stroke-linejoin="round"/>
<path d="M269.691 151.295L258.604 147.293C258.604 147.293 255.699 139.702 253.615 138.143C251.53 136.585 248.985 133.55 248.311 134.694C247.832 135.515 249.105 137.701 250.876 139.222C252.794 140.873 251.955 142.967 251.567 143.862C251.18 144.756 248.09 146.158 245.6 147.025C243.11 147.901 237.327 145.734 235.814 147.237C234.302 148.741 238.138 149.239 238.138 149.239C238.138 149.239 235.298 149.451 235.049 151.12C234.901 152.107 237.733 151.489 239.144 151.342C240.555 151.194 243.451 151.01 243.451 151.01C243.451 151.01 238.544 152.716 238.895 154.081C239.245 155.446 242.695 153.371 245.535 152.891C245.535 152.891 241.708 154.791 242.206 156.064C242.713 157.346 244.548 155.501 247.832 154.192L254.712 152.614L265.918 158.655L269.672 151.286L269.691 151.295Z" fill="white" stroke="#263238" stroke-width="0.922309" stroke-linecap="round" stroke-linejoin="round"/>
<path d="M239.219 149.156C239.219 149.156 241.903 149.783 243.969 149.58" stroke="#263238" stroke-width="0.691732" stroke-linecap="round" stroke-linejoin="round"/>
<path d="M315.851 134.611C315.114 134.316 314.265 134.5 313.721 135.081L293.928 156.156L261.49 147.2L257.903 156.248C257.903 156.248 282.51 170.009 295.016 169.253C304.507 168.681 316.11 158.471 321.155 153.583C322.852 151.932 323.608 149.552 323.202 147.219" fill="#00F500"/>
<path d="M315.851 134.611C315.114 134.316 314.265 134.5 313.721 135.081L293.928 156.156L261.49 147.2L257.903 156.248C257.903 156.248 282.51 170.009 295.016 169.253C304.507 168.681 316.11 158.471 321.155 153.583C322.852 151.932 323.608 149.552 323.202 147.219" stroke="#263238" stroke-width="0.922309" stroke-linecap="round" stroke-linejoin="round"/>
<path d="M264.776 155.326C264.877 155.925 264.481 156.488 263.881 156.59C263.282 156.691 262.719 156.294 262.618 155.695C262.516 155.095 262.913 154.533 263.512 154.431C264.112 154.33 264.674 154.726 264.776 155.326Z" fill="white" stroke="#263238" stroke-width="0.691732" stroke-linecap="round" stroke-linejoin="round"/>
<path d="M293.617 162.446C294.669 159.725 293.23 157.484 294.706 157.226C296.292 156.949 296.283 161.635 298.727 161.561" stroke="#263238" stroke-width="0.691732" stroke-linecap="round" stroke-linejoin="round"/>
<path d="M179.696 347.313L156.417 344.694V292.04L168.37 284.855V282.245H136.329V284.855L148.282 292.003V344.703L125.003 347.323C122.845 347.562 121.203 349.398 121.203 351.575V353.742H183.496V351.575C183.496 349.398 181.863 347.572 179.696 347.323V347.313Z" fill="white" stroke="#263238" stroke-width="0.691732" stroke-linecap="round" stroke-linejoin="round"/>
<path d="M129.376 251.366H123.012V280.271H129.376V251.366Z" fill="white" stroke="#263238" stroke-width="0.691732" stroke-linecap="round" stroke-linejoin="round"/>
<path d="M186.158 274.285H118.525C116.319 274.285 114.531 276.073 114.531 278.279V282.263C114.531 284.469 116.319 286.257 118.525 286.257H186.158C188.363 286.257 190.151 284.469 190.151 282.263V278.279C190.151 276.073 188.363 274.285 186.158 274.285Z" fill="#263238" stroke="#263238" stroke-width="0.922309" stroke-linecap="round" stroke-linejoin="round"/>
<path d="M139.529 221.824H112.865C108.627 221.824 105.191 225.26 105.191 229.498V246.33C105.191 250.568 108.627 254.004 112.865 254.004H139.529C143.767 254.004 147.203 250.568 147.203 246.33V229.498C147.203 225.26 143.767 221.824 139.529 221.824Z" fill="#263238"/>
<mask id="mask6_2195_41" style="mask-type:luminance" maskUnits="userSpaceOnUse" x="105" y="221" width="43" height="34">
<path d="M139.529 221.824H112.865C108.627 221.824 105.191 225.26 105.191 229.498V246.33C105.191 250.568 108.627 254.004 112.865 254.004H139.529C143.767 254.004 147.203 250.568 147.203 246.33V229.498C147.203 225.26 143.767 221.824 139.529 221.824Z" fill="white"/>
</mask>
<g mask="url(#mask6_2195_41)">
<path opacity="0.5" d="M146.541 221.824H119.877C115.639 221.824 112.203 225.26 112.203 229.498V246.33C112.203 250.568 115.639 254.004 119.877 254.004H146.541C150.779 254.004 154.214 250.568 154.214 246.33V229.498C154.214 225.26 150.779 221.824 146.541 221.824Z" fill="#1E293B"/>
</g>
<path d="M139.529 221.824H112.865C108.627 221.824 105.191 225.26 105.191 229.498V246.33C105.191 250.568 108.627 254.004 112.865 254.004H139.529C143.767 254.004 147.203 250.568 147.203 246.33V229.498C147.203 225.26 143.767 221.824 139.529 221.824Z" stroke="#263238" stroke-width="0.922309" stroke-linecap="round" stroke-linejoin="round"/>
<path d="M176.715 272.477C177.499 271.832 179.085 270.55 183.272 268.641" stroke="#263238" stroke-width="0.691732" stroke-linecap="round" stroke-linejoin="round"/>
<path d="M180.673 266.446C180.673 266.446 173.986 271.924 175.342 272.745" stroke="#263238" stroke-width="0.691732" stroke-linecap="round" stroke-linejoin="round"/>
<path d="M201.833 317.661L203.909 332.28C203.909 332.28 200.026 335.453 199.832 344.085L206.666 346.52L208.511 344.085L214.617 350.459C214.617 350.459 225.435 355.328 226.911 352.073C228.387 348.817 222.429 346.4 217.384 339.252C216.074 337.389 211.693 332.132 211.693 332.132L212.126 316.877L201.833 317.68V317.661Z" fill="#263238" stroke="#263238" stroke-width="0.691732" stroke-linecap="round" stroke-linejoin="round"/>
<path d="M149.574 255.618C149.574 255.618 206.849 251.781 209.45 259.869C212.051 267.958 213.287 293.847 213.425 304.122C213.564 314.396 212.743 327.41 212.743 327.41C212.743 327.41 207.541 329.19 202.192 327.41C202.192 327.41 199.674 312.478 197.847 305.21C196.021 297.952 194.103 288.267 195.2 272.966C195.2 272.966 140.323 281.23 140.019 271.638C139.714 262.046 149.574 255.608 149.574 255.608V255.618Z" fill="white"/>
<mask id="mask7_2195_41" style="mask-type:luminance" maskUnits="userSpaceOnUse" x="140" y="254" width="74" height="75">
<path d="M149.578 255.618C149.578 255.618 206.853 251.781 209.454 259.869C212.055 267.958 213.291 293.847 213.429 304.122C213.568 314.396 212.747 327.41 212.747 327.41C212.747 327.41 207.545 329.19 202.195 327.41C202.195 327.41 199.678 312.478 197.851 305.21C196.025 297.952 194.107 288.267 195.204 272.966C195.204 272.966 140.327 281.23 140.023 271.638C139.718 262.046 149.578 255.608 149.578 255.608V255.618Z" fill="white"/>
</mask>
<g mask="url(#mask7_2195_41)">
<path opacity="0.5" d="M149.578 255.618C149.578 255.618 206.853 251.781 209.454 259.869C212.055 267.958 213.291 293.847 213.429 304.122C213.568 314.396 212.747 327.41 212.747 327.41C212.747 327.41 207.545 329.19 202.195 327.41C202.195 327.41 199.678 312.478 197.851 305.21C196.025 297.952 194.107 288.267 195.204 272.966C195.204 272.966 140.327 281.23 140.023 271.638C139.718 262.046 149.578 255.608 149.578 255.608V255.618Z" fill="#1E293B"/>
<path opacity="0.2" d="M187.817 258.135C187.817 258.135 201.587 257.951 200.157 272.477C198.728 287.004 195.481 278.454 196.551 299.482C197.63 320.511 185.363 279.994 185.363 279.994V261.594L187.817 258.145V258.135Z" fill="#1E293B"/>
</g>
<path d="M149.574 255.618C149.574 255.618 206.849 251.781 209.45 259.869C212.051 267.958 213.287 293.847 213.425 304.122C213.564 314.396 212.743 327.41 212.743 327.41C212.743 327.41 207.541 329.19 202.192 327.41C202.192 327.41 199.674 312.478 197.847 305.21C196.021 297.952 194.103 288.267 195.2 272.966C195.2 272.966 140.323 281.23 140.019 271.638C139.714 262.046 149.574 255.608 149.574 255.608V255.618Z" stroke="#263238" stroke-width="0.922309" stroke-linecap="round" stroke-linejoin="round"/>
<path d="M201.353 267.746C201.353 267.746 200.762 270.402 197.055 272.975" stroke="#263238" stroke-width="0.691732" stroke-linecap="round" stroke-linejoin="round"/>
<path d="M214.061 324.136L213.664 328.01C213.664 328.01 207.116 331.524 201.351 328.277L200.152 324.477C200.152 324.477 204.054 327.152 214.061 324.145V324.136Z" fill="#92E3A9"/>
<mask id="mask8_2195_41" style="mask-type:luminance" maskUnits="userSpaceOnUse" x="200" y="324" width="15" height="6">
<path d="M214.065 324.136L213.668 328.01C213.668 328.01 207.12 331.524 201.355 328.277L200.156 324.477C200.156 324.477 204.058 327.152 214.065 324.145V324.136Z" fill="white"/>
</mask>
<g mask="url(#mask8_2195_41)">
<path opacity="0.3" d="M214.065 324.136L213.668 328.01C213.668 328.01 207.12 331.524 201.355 328.277L200.156 324.477C200.156 324.477 204.058 327.152 214.065 324.145V324.136Z" fill="#00F500" stroke="#263238" stroke-width="0.691732" stroke-miterlimit="10"/>
</g>
<path d="M214.061 324.136L213.664 328.01C213.664 328.01 207.116 331.524 201.351 328.277L200.152 324.477C200.152 324.477 204.054 327.152 214.061 324.145V324.136Z" stroke="#263238" stroke-width="0.691732" stroke-linecap="round" stroke-linejoin="round"/>
<path d="M211.312 333.433C211.312 333.433 214.707 336.605 218.211 342.084" stroke="#7F7F7F" stroke-width="0.922309" stroke-linecap="round" stroke-linejoin="round"/>
<path d="M160.186 307.451L153.794 320.76C153.794 320.76 148.804 321.24 143.852 328.314L148.186 334.134L151.073 333.138L152.613 341.826C152.613 341.826 158.904 351.879 161.938 349.998C164.972 348.107 161.357 342.794 161.136 334.042C161.08 331.763 160.352 324.957 160.352 324.957L169.187 312.506L160.176 307.451H160.186Z" fill="#263238" stroke="#263238" stroke-width="0.691732" stroke-linecap="round" stroke-linejoin="round"/>
<path d="M129.841 257.776C129.841 257.776 121.725 274.008 132.101 275.447C142.477 276.886 174.232 275.032 174.232 275.032C174.232 275.032 167.794 285.205 163.68 294.936C159.567 304.666 155.463 314.664 155.463 314.664C155.463 314.664 157.243 319.46 164.501 320.419C164.501 320.419 170.395 311.242 183.27 296.854C196.146 282.466 199.715 268.078 196.976 263.153C194.237 258.218 179.987 255.553 156.966 254.483L129.841 257.776Z" fill="white"/>
<mask id="mask9_2195_41" style="mask-type:luminance" maskUnits="userSpaceOnUse" x="126" y="254" width="72" height="67">
<path d="M129.837 257.776C129.837 257.776 121.721 274.008 132.097 275.447C142.473 276.886 174.228 275.032 174.228 275.032C174.228 275.032 167.79 285.205 163.677 294.936C159.563 304.666 155.459 314.664 155.459 314.664C155.459 314.664 157.239 319.46 164.497 320.419C164.497 320.419 170.391 311.242 183.266 296.854C196.142 282.466 199.711 268.078 196.972 263.153C194.233 258.218 179.983 255.553 156.962 254.483L129.837 257.776Z" fill="white"/>
</mask>
<g mask="url(#mask9_2195_41)">
<path opacity="0.5" d="M129.837 257.776C129.837 257.776 121.721 274.008 132.097 275.447C142.473 276.886 174.228 275.032 174.228 275.032C174.228 275.032 167.79 285.205 163.677 294.936C159.563 304.666 155.459 314.664 155.459 314.664C155.459 314.664 157.239 319.46 164.497 320.419C164.497 320.419 170.391 311.242 183.266 296.854C196.142 282.466 199.711 268.078 196.972 263.153C194.233 258.218 179.983 255.553 156.962 254.483L129.837 257.776Z" fill="#1E293B"/>
</g>
<path d="M129.841 257.776C129.841 257.776 121.725 274.008 132.101 275.447C142.477 276.886 174.232 275.032 174.232 275.032C174.232 275.032 167.794 285.205 163.68 294.936C159.567 304.666 155.463 314.664 155.463 314.664C155.463 314.664 157.243 319.46 164.501 320.419C164.501 320.419 170.395 311.242 183.27 296.854C196.146 282.466 199.715 268.078 196.976 263.153C194.237 258.218 179.987 255.553 156.966 254.483L129.841 257.776Z" stroke="#263238" stroke-width="0.922309" stroke-linecap="round" stroke-linejoin="round"/>
<path d="M166.965 319.054L164.503 322.07C164.503 322.07 157.106 321.387 154.09 315.494L155.187 311.657C155.187 311.657 156.967 316.038 166.974 319.054H166.965Z" fill="#00F500"/>
<mask id="mask10_2195_41" style="mask-type:luminance" maskUnits="userSpaceOnUse" x="154" y="311" width="13" height="12">
<path d="M166.961 319.054L164.499 322.07C164.499 322.07 157.102 321.387 154.086 315.494L155.183 311.657C155.183 311.657 156.964 316.038 166.971 319.054H166.961Z" fill="white"/>
</mask>
<g mask="url(#mask10_2195_41)">
<path opacity="0.3" d="M166.961 319.054L164.499 322.07C164.499 322.07 157.102 321.387 154.086 315.494L155.183 311.657C155.183 311.657 156.964 316.038 166.971 319.054H166.961Z" fill="#92E3A9" stroke="#263238" stroke-width="0.691732" stroke-miterlimit="10"/>
</g>
<path d="M166.965 319.054L164.503 322.07C164.503 322.07 157.106 321.387 154.09 315.494L155.187 311.657C155.187 311.657 156.967 316.038 166.974 319.054H166.965Z" stroke="#263238" stroke-width="0.691732" stroke-linecap="round" stroke-linejoin="round"/>
<path d="M159.105 326.202C159.474 328.213 160.166 332.308 160.535 336.725" stroke="#7F7F7F" stroke-width="0.922309" stroke-linecap="round" stroke-linejoin="round"/>
<path d="M156.149 160.685C156.149 160.685 163.214 157.18 155.771 152.504C148.337 147.828 135.342 160.685 135.342 160.685L134.078 166.689C134.078 166.689 134.632 171.476 136.347 174.252C137.74 176.493 140.193 176.511 141.364 178.725C143.145 182.101 142.554 184.499 144.39 183.023C148.927 179.37 150.385 164.752 150.385 164.752L156.149 160.675V160.685Z" fill="#263238" stroke="#263238" stroke-width="0.922309" stroke-linecap="round" stroke-linejoin="round"/>
<path d="M153.426 189.488L154.653 182.294L145.375 174.298L142.746 186.343L153.426 189.488Z" fill="white"/>
<mask id="mask11_2195_41" style="mask-type:luminance" maskUnits="userSpaceOnUse" x="142" y="174" width="13" height="16">
<path d="M153.43 189.488L154.657 182.294L145.379 174.298L142.75 186.343L153.43 189.488Z" fill="white"/>
</mask>
<g mask="url(#mask11_2195_41)">
<path d="M144.465 175.137C144.465 175.137 145.23 179.288 147.481 181.898C149.731 184.508 155.634 187.607 155.634 187.607L156.141 182.654L146.918 175.626L145.378 174.298L144.465 175.137Z" fill="#263238" stroke="#263238" stroke-width="0.461155" stroke-linecap="round" stroke-linejoin="round"/>
</g>
<path d="M153.426 189.488L154.653 182.294L145.375 174.298L142.746 186.343L153.426 189.488Z" stroke="#263238" stroke-width="0.922309" stroke-linecap="round" stroke-linejoin="round"/>
<path d="M156.38 158.148C156.38 158.148 160.595 165.536 160.503 167.657C160.503 167.657 166.009 182.183 160.53 184.563C156.223 186.435 150.837 182.811 148.725 181.169C148.144 180.717 147.664 180.145 147.295 179.509L145.488 176.345C145.488 176.345 143.274 176.982 141.254 174.104C139.234 171.226 141.309 168.496 143.532 170.193C143.532 170.193 145.211 166.716 144.685 164.798C144.159 162.88 146.686 162.852 146.788 160.814C146.788 160.814 152.774 160.592 156.371 158.139L156.38 158.148Z" fill="white"/>
<path d="M156.38 158.148C156.38 158.148 160.595 165.536 160.503 167.657C160.503 167.657 166.009 182.183 160.53 184.563C156.223 186.435 150.837 182.811 148.725 181.169C148.144 180.717 147.664 180.145 147.295 179.509L145.488 176.345C145.488 176.345 143.274 176.982 141.254 174.104C139.234 171.226 141.309 168.496 143.532 170.193C143.532 170.193 145.211 166.716 144.685 164.798C144.159 162.88 146.686 162.852 146.788 160.814C146.788 160.814 152.774 160.592 156.371 158.139L156.38 158.148Z" stroke="#263238" stroke-width="0.922309" stroke-linecap="round" stroke-linejoin="round"/>
<path d="M155.605 178.061C155.605 178.061 156.97 179.905 159.756 177.452" stroke="#263238" stroke-width="0.691732" stroke-linecap="round" stroke-linejoin="round"/>
<path d="M157.9 169.456C158.407 171.439 157.817 173.311 156.581 173.624C155.345 173.938 153.934 172.591 153.427 170.599C152.92 168.616 153.731 167.851 154.967 167.528C156.203 167.214 157.393 167.463 157.9 169.446V169.456Z" stroke="#263238" stroke-width="0.691732" stroke-linecap="round" stroke-linejoin="round"/>
<path d="M163.544 167.814C164.051 169.797 163.646 171.614 162.64 171.872C161.635 172.13 160.399 170.729 159.892 168.746C159.385 166.763 160.03 166.043 161.035 165.785C162.041 165.527 163.037 165.831 163.544 167.814Z" fill="white" stroke="#263238" stroke-width="0.691732" stroke-linecap="round" stroke-linejoin="round"/>
<path d="M152.773 167.482C152.773 167.482 153.963 165.029 156.536 166.228" stroke="#263238" stroke-width="0.691732" stroke-linecap="round" stroke-linejoin="round"/>
<path d="M158.879 165.425C158.879 165.425 159.073 164.401 160.05 164.079" stroke="#263238" stroke-width="0.691732" stroke-linecap="round" stroke-linejoin="round"/>
<path d="M153.426 170.608L151.074 171.558L143.539 170.203" stroke="#263238" stroke-width="0.691732" stroke-linecap="round" stroke-linejoin="round"/>
<path d="M159.819 168.423L157.937 169.188" stroke="#263238" stroke-width="0.691732" stroke-linecap="round" stroke-linejoin="round"/>
<path d="M156.849 169.935C156.923 170.562 156.665 171.107 156.278 171.153C155.89 171.199 155.512 170.728 155.438 170.101C155.365 169.474 155.623 168.93 156.01 168.884C156.398 168.838 156.776 169.308 156.849 169.935Z" fill="#263238"/>
<path d="M161.461 168.266C161.535 168.875 161.36 169.4 161.083 169.428C160.806 169.465 160.52 168.994 160.447 168.377C160.373 167.768 160.548 167.242 160.825 167.214C161.101 167.178 161.387 167.648 161.461 168.266Z" fill="#263238"/>
<path d="M159.328 168.635L163.202 172.038C163.598 172.389 163.543 173.016 163.1 173.302L161.108 174.547" fill="white"/>
<path d="M159.328 168.635L163.202 172.038C163.598 172.389 163.543 173.016 163.1 173.302L161.108 174.547" stroke="#263238" stroke-width="0.691732" stroke-linecap="round" stroke-linejoin="round"/>
<path d="M137.389 160.933C137.389 160.933 136.706 148.667 127.188 153.592C117.67 158.517 126.764 172.868 123.914 176.041C121.064 179.214 126.515 177.793 127.188 175.497C127.862 173.2 127.308 179.333 128.627 179.546C129.946 179.758 130.158 174.288 131.366 174.288C132.575 174.288 131.034 177.701 132.021 178.07C133.008 178.448 135.305 171.383 135.959 167.463C136.614 163.544 137.38 160.915 137.38 160.915L137.389 160.933Z" fill="#263238" stroke="#263238" stroke-width="0.922309" stroke-linecap="round" stroke-linejoin="round"/>
<path d="M137.388 159.264C137.388 159.264 134.068 162.963 135.359 172.149C135.359 172.149 128.912 162.815 137.388 159.264Z" fill="#92E3A9" stroke="#263238" stroke-width="0.922309" stroke-linecap="round" stroke-linejoin="round"/>
<path d="M145.277 160.685C145.277 160.685 148.967 161.708 149.474 164.761C149.981 167.805 151.706 157.77 145.277 160.685Z" fill="#263238" stroke="#263238" stroke-width="0.691732" stroke-linecap="round" stroke-linejoin="round"/>
<path d="M157.516 160.03C157.516 160.03 161.528 158.812 162.727 161.441C162.727 161.441 162.136 155.105 157.516 160.03Z" fill="#263238" stroke="#263238" stroke-width="0.691732" stroke-linecap="round" stroke-linejoin="round"/>
<path d="M189.21 157.392C190.022 157.17 190.861 158.231 190.861 158.231C191.728 156.755 193.112 159.199 193.112 159.199C194.274 157.779 194.864 160.887 194.864 160.887C194.864 160.887 196.091 160.611 195.943 162.16C195.75 164.208 193.361 168.893 193.361 168.893L191.821 176.825L186.019 176.142L187.836 168.533C187.836 168.533 187.089 167.076 186.13 165.194C186.13 165.194 185.005 162.796 185.244 160.896C185.484 159.006 188.399 157.604 189.21 157.392Z" fill="white" stroke="#263238" stroke-width="0.922309" stroke-linecap="round" stroke-linejoin="round"/>
<path d="M189.219 159.292C189.219 159.292 190.953 162.926 190.741 159.273C190.741 159.273 192.004 163.765 192.807 160.122C192.807 160.122 192.318 164.318 194.015 161.939C194.015 161.939 193.305 163.193 193.618 163.774C193.932 164.355 194.854 163.396 194.854 163.396" fill="white"/>
<path d="M189.219 159.292C189.219 159.292 190.953 162.926 190.741 159.273C190.741 159.273 192.004 163.765 192.807 160.122C192.807 160.122 192.318 164.318 194.015 161.939C194.015 161.939 193.305 163.193 193.618 163.774C193.932 164.355 194.854 163.396 194.854 163.396" stroke="#263238" stroke-width="0.691732" stroke-linecap="round" stroke-linejoin="round"/>
<path d="M160.902 192.061L179.477 192.44L186.441 173.071L192.574 175.22C192.574 175.22 189.429 199.744 186.284 201.201C183.139 202.659 163.946 204.706 163.946 204.706C163.946 204.706 158.024 198.176 160.902 192.061Z" fill="#00F500"/>
<mask id="mask12_2195_41" style="mask-type:luminance" maskUnits="userSpaceOnUse" x="160" y="173" width="33" height="32">
<path d="M160.902 192.061L179.477 192.44L186.441 173.071L192.574 175.22C192.574 175.22 189.429 199.744 186.284 201.201C183.139 202.659 163.946 204.706 163.946 204.706C163.946 204.706 158.024 198.176 160.902 192.061Z" fill="white"/>
</mask>
<g mask="url(#mask12_2195_41)">
<path opacity="0.2" d="M159.325 191.434C159.325 191.434 164.323 192.153 167.496 197.632C170.669 203.111 180.012 202.612 180.012 202.612L183.268 207.159L169.691 211.872L159.712 208.478L154.648 198.619V195.769L159.325 191.434Z" fill="#1E293B"/>
</g>
<path d="M160.902 192.061L179.477 192.44L186.441 173.071L192.574 175.22C192.574 175.22 189.429 199.744 186.284 201.201C183.139 202.659 163.946 204.706 163.946 204.706C163.946 204.706 158.024 198.176 160.902 192.061Z" stroke="#263238" stroke-width="0.922309" stroke-linecap="round" stroke-linejoin="round"/>
<path d="M185.355 174.574L192.586 177.037L193.075 173.735L186.232 171.568L185.355 174.574Z" fill="#92E3A9" stroke="#263238" stroke-width="0.922309" stroke-linecap="round" stroke-linejoin="round"/>
<path d="M195.503 165.766C192.708 166.403 189.932 164.66 189.295 161.865L182.129 130.553L192.238 128.238L199.404 159.55C200.04 162.345 198.297 165.121 195.503 165.757V165.766Z" fill="white" stroke="#263238" stroke-width="0.691732" stroke-linecap="round" stroke-linejoin="round"/>
<path d="M190.732 130.187L184.223 131.677L185.284 136.316L191.794 134.826L190.732 130.187Z" fill="#92E3A9"/>
<mask id="mask13_2195_41" style="mask-type:luminance" maskUnits="userSpaceOnUse" x="184" y="130" width="8" height="7">
<path d="M190.732 130.187L184.223 131.677L185.284 136.316L191.794 134.826L190.732 130.187Z" fill="white"/>
</mask>
<g mask="url(#mask13_2195_41)">
<path opacity="0.7" d="M190.732 130.187L184.223 131.677L185.284 136.316L191.794 134.826L190.732 130.187Z" fill="white"/>
</g>
<path d="M192.056 135.928L185.547 137.417L186.609 142.057L193.118 140.567L192.056 135.928Z" fill="#92E3A9"/>
<mask id="mask14_2195_41" style="mask-type:luminance" maskUnits="userSpaceOnUse" x="185" y="135" width="9" height="8">
<path d="M192.06 135.928L185.551 137.417L186.613 142.056L193.122 140.567L192.06 135.928Z" fill="white"/>
</mask>
<g mask="url(#mask14_2195_41)">
<path opacity="0.3" d="M192.06 135.928L185.551 137.417L186.613 142.056L193.122 140.567L192.06 135.928Z" fill="white"/>
</g>
<path d="M193.357 141.679L186.848 143.169L187.909 147.808L194.419 146.319L193.357 141.679Z" fill="#92E3A9"/>
<path d="M194.673 147.411L188.164 148.9L189.226 153.54L195.735 152.05L194.673 147.411Z" fill="#29FF29"/>
<mask id="mask15_2195_41" style="mask-type:luminance" maskUnits="userSpaceOnUse" x="188" y="147" width="8" height="7">
<path d="M194.673 147.411L188.164 148.9L189.226 153.54L195.735 152.05L194.673 147.411Z" fill="white"/>
</mask>
<g mask="url(#mask15_2195_41)">
<path opacity="0.2" d="M194.673 147.411L188.164 148.9L189.226 153.54L195.735 152.05L194.673 147.411Z" fill="#1E293B"/>
</g>
<path d="M195.982 153.163L189.473 154.652L190.534 159.292L197.044 157.802L195.982 153.163Z" fill="#00F500"/>
<mask id="mask16_2195_41" style="mask-type:luminance" maskUnits="userSpaceOnUse" x="189" y="153" width="9" height="7">
<path d="M195.978 153.162L189.469 154.652L190.531 159.291L197.04 157.802L195.978 153.162Z" fill="white"/>
</mask>
<g mask="url(#mask16_2195_41)">
<path opacity="0.3" d="M195.978 153.162L189.469 154.652L190.531 159.291L197.04 157.802L195.978 153.162Z" fill="#1E293B"/>
</g>
<path d="M186.742 160.232C186.742 160.232 187.148 158.545 188.642 159.633C190.136 160.731 192.341 161.09 192.082 161.764C191.824 162.437 191.261 162.861 189.122 162.003C189.122 162.003 188.744 162.234 189.288 162.898C189.943 163.7 190.68 164.779 190.699 165.61" fill="white"/>
<path d="M186.742 160.232C186.742 160.232 187.148 158.545 188.642 159.633C190.136 160.731 192.341 161.09 192.082 161.764C191.824 162.437 191.261 162.861 189.122 162.003C189.122 162.003 188.744 162.234 189.288 162.898C189.943 163.7 190.68 164.779 190.699 165.61" stroke="#263238" stroke-width="0.691732" stroke-linecap="round" stroke-linejoin="round"/>
<path d="M126.328 192.467L132.129 244.338L128.431 259.934C128.431 259.934 132.304 260.81 143.077 257.416C153.849 254.031 165.36 255.055 165.36 255.055C165.36 255.055 170.128 220.523 168.219 209.732C166.31 198.941 160.914 192.061 160.914 192.061C160.914 192.061 140.245 183.022 127.619 189.931C126.715 190.429 126.217 191.443 126.328 192.476V192.467Z" fill="#00F500"/>
<mask id="mask17_2195_41" style="mask-type:luminance" maskUnits="userSpaceOnUse" x="126" y="187" width="43" height="74">
<path d="M126.324 192.467L132.125 244.338L128.427 259.934C128.427 259.934 132.3 260.81 143.073 257.416C153.846 254.031 165.356 255.055 165.356 255.055C165.356 255.055 170.124 220.523 168.215 209.732C166.306 198.941 160.91 192.061 160.91 192.061C160.91 192.061 140.241 183.022 127.615 189.931C126.711 190.429 126.213 191.443 126.324 192.476V192.467Z" fill="white"/>
</mask>
<g mask="url(#mask17_2195_41)">
<path opacity="0.12" d="M134.94 205.379C134.94 205.379 137.827 216.023 137.385 222.451C136.942 228.88 152.252 227.561 151.542 231.942C150.823 236.323 136.425 241.137 135.955 245.232C135.485 249.318 130.172 259.279 146.174 256.567C162.176 253.856 134.175 268.622 134.175 268.622L109.789 263.632L117.97 242.161L126.317 206.532L134.95 205.379H134.94Z" fill="#1E293B"/>
</g>
<path d="M126.328 192.467L132.129 244.338L128.431 259.934C128.431 259.934 132.304 260.81 143.077 257.416C153.849 254.031 165.36 255.055 165.36 255.055C165.36 255.055 170.128 220.523 168.219 209.732C166.31 198.941 160.914 192.061 160.914 192.061C160.914 192.061 140.245 183.022 127.619 189.931C126.715 190.429 126.217 191.443 126.328 192.476V192.467Z" stroke="#263238" stroke-width="0.922309" stroke-linecap="round" stroke-linejoin="round"/>
<path d="M139.408 187.606L142.128 182.294C142.128 182.294 146.436 183.807 151.665 184.95C156.895 186.094 155.631 187.606 155.631 187.606L154.294 191.637C154.294 191.637 152.237 193.648 139.398 187.606H139.408Z" fill="#00F500" stroke="#263238" stroke-width="0.922309" stroke-linecap="round" stroke-linejoin="round"/>
<path d="M129.301 227.773C129.301 227.773 132.261 225.44 132.999 226.436C133.746 227.432 132.169 227.109 130.998 230.494" stroke="#263238" stroke-width="0.922309" stroke-linecap="round" stroke-linejoin="round"/>
<path d="M155.841 252.399C155.408 250.148 156.883 247.972 159.134 247.538L184.368 242.687L185.936 250.831L160.702 255.682C158.451 256.116 156.275 254.64 155.841 252.389V252.399Z" fill="white" stroke="#263238" stroke-width="0.691732" stroke-linecap="round" stroke-linejoin="round"/>
<path d="M184.421 249.578L183.41 244.325L179.669 245.045L180.68 250.298L184.421 249.578Z" fill="#92E3A9"/>
<mask id="mask18_2195_41" style="mask-type:luminance" maskUnits="userSpaceOnUse" x="179" y="244" width="6" height="7">
<path d="M184.421 249.578L183.41 244.325L179.669 245.045L180.68 250.298L184.421 249.578Z" fill="white"/>
</mask>
<g mask="url(#mask18_2195_41)">
<path opacity="0.7" d="M184.421 249.578L183.41 244.325L179.669 245.045L180.68 250.298L184.421 249.578Z" fill="white"/>
</g>
<path d="M179.803 250.465L178.793 245.212L175.052 245.932L176.063 251.185L179.803 250.465Z" fill="#92E3A9"/>
<mask id="mask19_2195_41" style="mask-type:luminance" maskUnits="userSpaceOnUse" x="175" y="245" width="5" height="7">
<path d="M179.807 250.465L178.797 245.212L175.056 245.932L176.067 251.185L179.807 250.465Z" fill="white"/>
</mask>
<g mask="url(#mask19_2195_41)">
<path opacity="0.3" d="M179.807 250.465L178.797 245.212L175.056 245.932L176.067 251.185L179.807 250.465Z" fill="white"/>
</g>
<path d="M175.161 251.345L174.152 246.101L170.412 246.821L171.421 252.065L175.161 251.345Z" fill="#92E3A9"/>
<path d="M170.532 252.234L169.523 246.99L165.783 247.71L166.792 252.954L170.532 252.234Z" fill="#92E3A9"/>
<mask id="mask20_2195_41" style="mask-type:luminance" maskUnits="userSpaceOnUse" x="165" y="246" width="6" height="7">
<path d="M170.536 252.234L169.527 246.99L165.787 247.71L166.796 252.954L170.536 252.234Z" fill="white"/>
</mask>
<g mask="url(#mask20_2195_41)">
<path opacity="0.2" d="M170.536 252.234L169.527 246.99L165.787 247.71L166.796 252.954L170.536 252.234Z" fill="#1E293B"/>
</g>
<path d="M165.907 253.13L164.898 247.886L161.158 248.606L162.167 253.85L165.907 253.13Z" fill="#92E3A9"/>
<mask id="mask21_2195_41" style="mask-type:luminance" maskUnits="userSpaceOnUse" x="161" y="247" width="5" height="7">
<path d="M165.907 253.13L164.898 247.886L161.158 248.606L162.167 253.85L165.907 253.13Z" fill="white"/>
</mask>
<g mask="url(#mask21_2195_41)">
<path opacity="0.3" d="M165.907 253.13L164.898 247.886L161.158 248.606L162.167 253.85L165.907 253.13Z" fill="#1E293B"/>
</g>
<path d="M156.845 253.487C155.342 251.753 155.535 249.133 157.269 247.639L176.693 230.816L182.125 237.088L162.702 253.911C160.968 255.414 158.348 255.221 156.854 253.487H156.845Z" fill="white" stroke="#263238" stroke-width="0.691732" stroke-linecap="round" stroke-linejoin="round"/>
<path d="M180.168 236.743L176.672 232.706L173.792 235.199L177.288 239.236L180.168 236.743Z" fill="#92E3A9"/>
<mask id="mask22_2195_41" style="mask-type:luminance" maskUnits="userSpaceOnUse" x="173" y="232" width="8" height="8">
<path d="M180.164 236.743L176.668 232.706L173.788 235.199L177.284 239.236L180.164 236.743Z" fill="white"/>
</mask>
<g mask="url(#mask22_2195_41)">
<path opacity="0.7" d="M180.164 236.743L176.668 232.706L173.788 235.199L177.284 239.236L180.164 236.743Z" fill="white"/>
</g>
<path d="M176.615 239.831L173.113 235.787L170.234 238.281L173.735 242.325L176.615 239.831Z" fill="#92E3A9"/>
<mask id="mask23_2195_41" style="mask-type:luminance" maskUnits="userSpaceOnUse" x="170" y="235" width="7" height="8">
<path d="M176.619 239.831L173.117 235.787L170.238 238.281L173.739 242.325L176.619 239.831Z" fill="white"/>
</mask>
<g mask="url(#mask23_2195_41)">
<path opacity="0.3" d="M176.619 239.831L173.117 235.787L170.238 238.281L173.739 242.325L176.619 239.831Z" fill="white"/>
</g>
<path d="M173.054 242.918L169.559 238.881L166.679 241.375L170.175 245.412L173.054 242.918Z" fill="#92E3A9"/>
<path d="M169.484 246.003L165.988 241.966L163.109 244.46L166.604 248.497L169.484 246.003Z" fill="#92E3A9"/>
<mask id="mask24_2195_41" style="mask-type:luminance" maskUnits="userSpaceOnUse" x="163" y="241" width="7" height="8">
<path d="M169.484 246.003L165.988 241.966L163.109 244.46L166.604 248.497L169.484 246.003Z" fill="white"/>
</mask>
<g mask="url(#mask24_2195_41)">
<path opacity="0.2" d="M169.484 246.003L165.988 241.966L163.109 244.46L166.604 248.497L169.484 246.003Z" fill="#1E293B"/>
</g>
<path d="M165.931 249.092L162.43 245.048L159.55 247.541L163.052 251.585L165.931 249.092Z" fill="#92E3A9"/>
<mask id="mask25_2195_41" style="mask-type:luminance" maskUnits="userSpaceOnUse" x="159" y="245" width="7" height="7">
<path d="M165.928 249.092L162.426 245.048L159.546 247.541L163.048 251.585L165.928 249.092Z" fill="white"/>
</mask>
<g mask="url(#mask25_2195_41)">
<path opacity="0.3" d="M165.928 249.092L162.426 245.048L159.546 247.541L163.048 251.585L165.928 249.092Z" fill="#1E293B"/>
</g>
<path d="M157.629 253.634C155.461 252.887 154.317 250.526 155.064 248.359L163.476 224.074L171.316 226.786L162.904 251.07C162.157 253.238 159.796 254.382 157.629 253.634Z" fill="white" stroke="#263238" stroke-width="0.691732" stroke-linecap="round" stroke-linejoin="round"/>
<path d="M169.476 227.478L164.422 225.726L163.175 229.326L168.229 231.077L169.476 227.478Z" fill="#92E3A9"/>
<mask id="mask26_2195_41" style="mask-type:luminance" maskUnits="userSpaceOnUse" x="163" y="225" width="7" height="7">
<path d="M169.473 227.478L164.418 225.726L163.171 229.326L168.226 231.077L169.473 227.478Z" fill="white"/>
</mask>
<g mask="url(#mask26_2195_41)">
<path opacity="0.7" d="M169.473 227.478L164.418 225.726L163.171 229.326L168.226 231.077L169.473 227.478Z" fill="white"/>
</g>
<path d="M167.917 231.924L162.871 230.176L161.624 233.775L166.67 235.523L167.917 231.924Z" fill="#92E3A9"/>
<mask id="mask27_2195_41" style="mask-type:luminance" maskUnits="userSpaceOnUse" x="161" y="230" width="7" height="6">
<path d="M167.917 231.924L162.871 230.176L161.624 233.775L166.67 235.523L167.917 231.924Z" fill="white"/>
</mask>
<g mask="url(#mask27_2195_41)">
<path opacity="0.3" d="M167.917 231.924L162.871 230.176L161.624 233.775L166.67 235.523L167.917 231.924Z" fill="white"/>
</g>
<path d="M166.382 236.376L161.336 234.627L160.089 238.227L165.135 239.975L166.382 236.376Z" fill="#92E3A9"/>
<path d="M164.848 240.84L159.793 239.089L158.546 242.688L163.601 244.439L164.848 240.84Z" fill="#92E3A9"/>
<mask id="mask28_2195_41" style="mask-type:luminance" maskUnits="userSpaceOnUse" x="158" y="239" width="7" height="6">
<path d="M164.851 240.84L159.797 239.089L158.55 242.688L163.604 244.439L164.851 240.84Z" fill="white"/>
</mask>
<g mask="url(#mask28_2195_41)">
<path opacity="0.2" d="M164.851 240.84L159.797 239.089L158.55 242.688L163.604 244.439L164.851 240.84Z" fill="#1E293B"/>
</g>
<path d="M163.292 245.286L158.246 243.538L156.999 247.137L162.045 248.886L163.292 245.286Z" fill="#92E3A9"/>
<mask id="mask29_2195_41" style="mask-type:luminance" maskUnits="userSpaceOnUse" x="156" y="243" width="8" height="6">
<path d="M163.288 245.286L158.242 243.538L156.995 247.137L162.041 248.886L163.288 245.286Z" fill="white"/>
</mask>
<g mask="url(#mask29_2195_41)">
<path opacity="0.3" d="M163.288 245.286L158.242 243.538L156.995 247.137L162.041 248.886L163.288 245.286Z" fill="#1E293B"/>
</g>
<path d="M147.941 238.444L154.933 243.544C154.933 243.544 162.855 243.581 164.303 245.712C165.742 247.842 166.175 250.333 164.857 251.2C163.538 252.067 165.53 248.848 161.942 247.224C161.942 247.224 163.777 255.581 160.586 253.801C160.586 253.801 160.171 255.212 158.954 253.92C158.954 253.92 159.341 252.251 158.52 250.858C158.142 250.222 157.912 249.779 156.832 249.53C156.832 249.53 159.092 252.611 157.598 253.45C156.399 254.123 155.744 249.705 154.149 249.198C154.149 249.198 151.363 249.143 150.044 246.394L144.621 243.517L147.941 238.444Z" fill="white" stroke="#263238" stroke-width="0.922309" stroke-linecap="round" stroke-linejoin="round"/>
<path d="M160.862 252.5C160.973 251.642 160.964 249.908 159.645 248.137" stroke="#263238" stroke-width="0.691732" stroke-linecap="round" stroke-linejoin="round"/>
<path d="M162.599 245.786C162.599 245.786 162.46 246.422 161.012 246.284C159.952 246.182 158.393 248.313 156.77 247.99" stroke="#263238" stroke-width="0.691732" stroke-linecap="round" stroke-linejoin="round"/>
<path d="M127.843 191.038C127.474 190.539 126.709 190.65 126.488 191.222C124.966 195.133 120.88 208.202 123.084 231.37C123.084 231.37 124.846 236.101 145.542 245.14L149.481 239.053L134.189 226.629C134.189 226.629 136.19 210.028 134.678 203.83" fill="#00F500"/>
<path d="M127.843 191.038C127.474 190.539 126.709 190.65 126.488 191.222C124.966 195.133 120.88 208.202 123.084 231.37C123.084 231.37 124.846 236.101 145.542 245.14L149.481 239.053L134.189 226.629C134.189 226.629 136.19 210.028 134.678 203.83" stroke="#263238" stroke-width="0.922309" stroke-linecap="round" stroke-linejoin="round"/>
<path d="M148.558 237.651L143.809 245.343L147.535 246.68L151.538 239.957L148.558 237.651Z" fill="#00F500" stroke="#263238" stroke-width="0.922309" stroke-linecap="round" stroke-linejoin="round"/>
<path d="M65.2481 116.377C65.3311 118.849 65.5894 126.255 65.5894 126.255L80.2818 135.072L81.2041 118.268L81.7114 95.2283L84.1278 91.8711C84.1278 91.8711 87.7341 86.3465 81.7114 84.1883C75.6887 82.0301 77.3581 85.9868 71.3631 86.7062C65.368 87.4256 51.3212 96.787 57.6852 105.069C64.0491 113.352 65.1006 112.236 65.2481 116.368V116.377Z" fill="white"/>
<mask id="mask30_2195_41" style="mask-type:luminance" maskUnits="userSpaceOnUse" x="56" y="83" width="30" height="53">
<path d="M65.252 116.377C65.3351 118.849 65.5933 126.255 65.5933 126.255L80.2857 135.072L81.208 118.268L81.7153 95.2283L84.1317 91.8711C84.1317 91.8711 87.738 86.3465 81.7153 84.1883C75.6926 82.0301 77.362 85.9868 71.367 86.7062C65.3719 87.4256 51.3252 96.787 57.6891 105.069C64.053 113.352 65.1045 112.236 65.252 116.368V116.377Z" fill="white"/>
</mask>
<g mask="url(#mask30_2195_41)">
<path d="M70.8897 111.977C70.8897 111.977 72.2916 113.223 73.8872 113.481C73.8872 113.481 76.1653 119.9 77.3089 120.804C78.4526 121.708 82.5292 122.363 82.5292 122.363L83.7282 113.85L75.2706 108.316L70.6406 106.932L70.8897 111.977Z" fill="#263238" stroke="#263238" stroke-width="0.922309" stroke-linecap="round" stroke-linejoin="round"/>
</g>
<path d="M65.2481 116.377C65.3311 118.849 65.5894 126.255 65.5894 126.255L80.2818 135.072L81.2041 118.268L81.7114 95.2283L84.1278 91.8711C84.1278 91.8711 87.7341 86.3465 81.7114 84.1883C75.6887 82.0301 77.3581 85.9868 71.3631 86.7062C65.368 87.4256 51.3212 96.787 57.6852 105.069C64.0491 113.352 65.1006 112.236 65.2481 116.368V116.377Z" stroke="#263238" stroke-width="0.922309" stroke-linecap="round" stroke-linejoin="round"/>
<path d="M81.7114 95.2376L84.1278 91.8804C84.1278 91.8804 87.7341 86.3558 81.7114 84.1976C75.6887 82.0394 77.3581 85.9961 71.3631 86.7155C65.368 87.4349 51.3212 96.7963 57.6852 105.079C61.8171 110.465 63.7171 111.876 64.5749 113.343C65.5617 112.808 67.351 112.236 68.9743 113.85C71.3723 116.239 73.8164 102.884 73.8164 102.884L81.6745 97.3128L81.7206 95.2376H81.7114Z" fill="#263238" stroke="#263238" stroke-width="0.922309" stroke-linecap="round" stroke-linejoin="round"/>
<path d="M71.0018 104.119C71.0018 104.119 65.0805 104.276 68.2809 108.759C71.4814 113.241 74.7648 112.356 74.7648 112.356L78.3618 119.227C78.3618 119.227 90.9237 120.998 93.8843 120.112C96.8449 119.236 91.7261 108.915 91.7261 108.915L93.6906 106.674C94.1518 106.149 94.078 105.355 93.5338 104.922L88.8485 101.159C89.2451 98.8346 84.1262 91.8804 84.1262 91.8804C84.1262 91.8804 76.5264 91.7974 75.807 94.3614C75.0876 96.9255 74.7648 99.0006 74.7648 99.0006L70.4484 100.762L71.011 104.119H71.0018Z" fill="white"/>
<mask id="mask31_2195_41" style="mask-type:luminance" maskUnits="userSpaceOnUse" x="67" y="91" width="28" height="30">
<path d="M71.0057 104.119C71.0057 104.119 65.0844 104.276 68.2849 108.759C71.4853 113.241 74.7687 112.356 74.7687 112.356L78.3657 119.227C78.3657 119.227 90.9276 120.998 93.8882 120.112C96.8488 119.236 91.73 108.915 91.73 108.915L93.6945 106.674C94.1557 106.149 94.0819 105.355 93.5377 104.922L88.8524 101.159C89.249 98.8346 84.1301 91.8804 84.1301 91.8804C84.1301 91.8804 76.5303 91.7974 75.8109 94.3614C75.0915 96.9255 74.7687 99.0006 74.7687 99.0006L70.4523 100.762L71.0149 104.119H71.0057Z" fill="white"/>
</mask>
<g mask="url(#mask31_2195_41)">
<path opacity="0.3" d="M73.8942 97.1562L74.7704 99.0008C74.7704 99.0008 78.5703 101.602 78.7732 103.004C79.0315 104.839 77.067 106.121 81.079 110.041C85.0911 113.961 88.9371 109.404 91.7317 108.925C94.5355 108.445 96.8505 115.565 96.8505 115.565L96.5277 122.049L81.0698 122.529L77.7218 120.444L73.3316 113.075C73.3316 113.075 78.0815 112.651 75.7204 108.482C72.437 102.699 68.5909 103.52 68.5909 103.52L65.9531 101.168L72.7598 96.2708L73.885 97.1469L73.8942 97.1562Z" fill="#1E293B"/>
</g>
<path d="M71.0018 104.119C71.0018 104.119 65.0805 104.276 68.2809 108.759C71.4814 113.241 74.7648 112.356 74.7648 112.356L78.3618 119.227C78.3618 119.227 90.9237 120.998 93.8843 120.112C96.8449 119.236 91.7261 108.915 91.7261 108.915L93.6906 106.674C94.1518 106.149 94.078 105.355 93.5338 104.922L88.8485 101.159C89.2451 98.8346 84.1262 91.8804 84.1262 91.8804C84.1262 91.8804 76.5264 91.7974 75.807 94.3614C75.0876 96.9255 74.7648 99.0006 74.7648 99.0006L70.4484 100.762L71.011 104.119H71.0018Z" stroke="#263238" stroke-width="0.922309" stroke-linecap="round" stroke-linejoin="round"/>
<path d="M87.6946 101.777C87.9344 102.487 87.8975 103.142 87.6024 103.243C87.3073 103.345 86.8738 102.847 86.634 102.136C86.3942 101.426 86.4311 100.771 86.7262 100.67C87.0213 100.568 87.4548 101.066 87.6946 101.777Z" fill="#263238"/>
<path d="M86.5265 98.4379C86.5265 98.4379 84.3683 97.9583 83.7227 100.919" stroke="#263238" stroke-width="0.922309" stroke-linecap="round" stroke-linejoin="round"/>
<path d="M90.804 110.373C90.804 110.373 90.0477 112.457 87.207 111.406" stroke="#263238" stroke-width="0.922309" stroke-linecap="round" stroke-linejoin="round"/>
<path d="M142.862 109.976C143.83 110.373 143.858 112.042 143.858 112.042C145.822 111.24 145.352 114.689 145.352 114.689C147.556 114.163 145.813 117.677 145.813 117.677C145.813 117.677 147.243 118.323 145.924 119.753C144.19 121.625 138.324 124.456 138.324 124.456L130.844 131.125L125.633 126.089L133.14 119.937C133.14 119.937 133.5 117.936 133.961 115.362C133.961 115.362 134.653 112.144 136.313 110.456C137.973 108.768 141.893 109.579 142.862 109.976Z" fill="#999999" stroke="#263238" stroke-width="0.922309" stroke-linecap="round" stroke-linejoin="round"/>
<path d="M141.451 111.858C141.451 111.858 140.437 116.746 142.964 112.983C142.964 112.983 140.842 118.369 144.366 115.372C144.366 115.372 140.723 119.144 144.19 118.074C144.19 118.074 142.549 118.775 142.42 119.587C142.3 120.398 143.923 120.14 143.923 120.14" fill="#999999"/>
<path d="M141.451 111.858C141.451 111.858 140.437 116.746 142.964 112.983C142.964 112.983 140.842 118.369 144.366 115.372C144.366 115.372 140.723 119.144 144.19 118.074C144.19 118.074 142.549 118.775 142.42 119.587C142.3 120.398 143.923 120.14 143.923 120.14" stroke="#263238" stroke-width="0.922309" stroke-linecap="round" stroke-linejoin="round"/>
<path d="M64.8789 151.295C64.8789 151.295 78.2247 154.394 106.816 150.179C106.816 150.179 128.777 138.715 134.384 128.155L129.173 122.16L102.223 137.276C102.223 137.276 74.1297 132.941 68.9278 133.633L64.8881 151.305L64.8789 151.295Z" fill="#263238" stroke="#263238" stroke-width="0.922309" stroke-linecap="round" stroke-linejoin="round"/>
<path d="M180.635 79.539L135.566 87.4939L141.477 120.982L186.546 113.027L180.635 79.539Z" fill="#999999" stroke="#263238" stroke-width="0.691732" stroke-linecap="round" stroke-linejoin="round"/>
<path d="M143.59 88.3089L138.867 89.1426L139.486 92.6485L144.209 91.8149L143.59 88.3089Z" fill="#263238" stroke="#263238" stroke-width="0.922309" stroke-linecap="round" stroke-linejoin="round"/>
<path d="M147.52 112.392L155.322 94.1953L168.88 108.62L147.52 112.392Z" fill="#92E3A9"/>
<mask id="mask32_2195_41" style="mask-type:luminance" maskUnits="userSpaceOnUse" x="147" y="94" width="22" height="19">
<path d="M147.523 112.392L155.326 94.1953L168.884 108.62L147.523 112.392Z" fill="white"/>
</mask>
<g mask="url(#mask32_2195_41)">
<path opacity="0.5" d="M147.523 112.392L155.326 94.1953L168.884 108.62L147.523 112.392Z" fill="#6CFF6C"/>
</g>
<path d="M147.52 112.392L155.322 94.1953L168.88 108.62L147.52 112.392Z" stroke="#263238" stroke-width="0.691732" stroke-linecap="round" stroke-linejoin="round"/>
<path d="M161.633 109.902L167.591 96.0122L177.948 107.025L161.633 109.902Z" fill="#00F500" stroke="#263238" stroke-width="0.691732" stroke-linecap="round" stroke-linejoin="round"/>
<path d="M165.935 92.3229C166.203 93.8263 165.198 95.2651 163.694 95.5326C162.191 95.8 160.752 94.7947 160.485 93.2914C160.217 91.788 161.222 90.3492 162.726 90.091C164.229 89.8235 165.668 90.8288 165.935 92.3322V92.3229Z" fill="#92E3A9"/>
<mask id="mask33_2195_41" style="mask-type:luminance" maskUnits="userSpaceOnUse" x="160" y="90" width="6" height="6">
<path d="M165.931 92.3229C166.199 93.8263 165.194 95.2651 163.69 95.5326C162.187 95.8 160.748 94.7947 160.481 93.2914C160.213 91.788 161.218 90.3492 162.722 90.091C164.225 89.8235 165.664 90.8288 165.931 92.3322V92.3229Z" fill="white"/>
</mask>
<g mask="url(#mask33_2195_41)">
<path opacity="0.7" d="M165.931 92.3229C166.199 93.8263 165.194 95.2651 163.69 95.5326C162.187 95.8 160.748 94.7947 160.481 93.2914C160.213 91.788 161.218 90.3492 162.722 90.091C164.225 89.8235 165.664 90.8288 165.931 92.3322V92.3229Z" fill="white"/>
</g>
<path d="M165.935 92.3229C166.203 93.8263 165.198 95.2651 163.694 95.5326C162.191 95.8 160.752 94.7947 160.485 93.2914C160.217 91.788 161.222 90.3492 162.726 90.091C164.229 89.8235 165.668 90.8288 165.935 92.3322V92.3229Z" stroke="#263238" stroke-width="0.691732" stroke-linecap="round" stroke-linejoin="round"/>
<path d="M138.278 109.994C138.278 109.994 139.947 108.639 140.602 110.834C141.257 113.038 144.079 114.126 143.314 114.606C142.548 115.086 140.759 115.989 139.292 113.536C139.292 113.536 138.748 113.481 138.785 114.541C138.831 115.833 138.739 117.447 138.149 118.277" fill="#999999"/>
<path d="M138.278 109.994C138.278 109.994 139.947 108.639 140.602 110.834C141.257 113.038 144.079 114.126 143.314 114.606C142.548 115.086 140.759 115.989 139.292 113.536C139.292 113.536 138.748 113.481 138.785 114.541C138.831 115.833 138.739 117.447 138.149 118.277" stroke="#263238" stroke-width="0.922309" stroke-linecap="round" stroke-linejoin="round"/>
<path d="M36.3599 334.641C36.3599 334.641 32.8828 338.681 31.4071 345.146C31.0474 346.723 32.0896 348.273 33.676 348.605L52.3989 352.451C56.5124 353.299 62.8118 353.124 65.9937 352.967C67.5432 352.894 68.7514 351.482 68.4471 349.961C68.2349 348.9 67.534 347.71 65.7447 346.723C61.3176 344.27 50.7941 342.619 46.4592 335.969L36.3599 334.641Z" fill="#263238" stroke="#263238" stroke-width="0.922309" stroke-linecap="round" stroke-linejoin="round"/>
<path d="M92.188 219.454C92.188 219.454 82.3378 246.819 69.7298 273.031C69.7298 273.031 67.2949 284.541 61.7795 292.362L47.954 336.532C47.954 336.532 41.8852 339.022 34.6912 334.724C34.6912 334.724 38.1222 306.465 46.9026 285.962L52.0675 269.72L58.5145 237.015C58.5145 237.015 53.0544 227.552 54.5024 213.671L78.7869 213.339L92.188 219.463V219.454Z" fill="#00F500"/>
<mask id="mask34_2195_41" style="mask-type:luminance" maskUnits="userSpaceOnUse" x="34" y="213" width="59" height="125">
<path d="M92.1919 219.454C92.1919 219.454 82.3417 246.819 69.7337 273.031C69.7337 273.031 67.2988 284.541 61.7834 292.362L47.9579 336.532C47.9579 336.532 41.8891 339.022 34.6951 334.724C34.6951 334.724 38.1261 306.465 46.9065 285.962L52.0714 269.72L58.5184 237.015C58.5184 237.015 53.0583 227.552 54.5063 213.671L78.7908 213.339L92.1919 219.463V219.454Z" fill="white"/>
</mask>
<g mask="url(#mask34_2195_41)">
<path opacity="0.2" d="M54.3573 231.702L58.5169 237.006C58.5169 237.006 64.5027 276.997 68.9483 276.102C73.3938 275.208 76.2806 253.912 76.2806 253.912L58.683 209.253L51.4059 216.235L47.3201 222.221L54.3573 231.712V231.702Z" fill="#1E293B"/>
</g>
<path d="M92.188 219.454C92.188 219.454 82.3378 246.819 69.7298 273.031C69.7298 273.031 67.2949 284.541 61.7795 292.362L47.954 336.532C47.954 336.532 41.8852 339.022 34.6912 334.724C34.6912 334.724 38.1222 306.465 46.9026 285.962L52.0675 269.72L58.5145 237.015C58.5145 237.015 53.0544 227.552 54.5024 213.671L78.7869 213.339L92.188 219.463V219.454Z" stroke="#263238" stroke-width="0.922309" stroke-linecap="round" stroke-linejoin="round"/>
<path d="M78.2026 339.031C78.2026 339.031 75.2513 342.969 75.0945 349.997C75.0576 351.713 76.4687 353.106 78.1842 353.106H98.4474C102.902 353.106 109.404 351.584 112.679 350.745C114.265 350.339 115.224 348.614 114.588 347.101C114.145 346.041 113.158 344.962 111.092 344.316C105.973 342.72 94.6936 343.246 88.7723 337.26L78.2119 339.031H78.2026Z" fill="#263238" stroke="#263238" stroke-width="0.922309" stroke-linecap="round" stroke-linejoin="round"/>
<path d="M90.4342 211.024C90.4342 211.024 94.5016 240.455 90.4342 269.259C90.4342 269.259 90.6924 281.258 87.8056 290.379L90.1022 337.666C90.1022 337.666 85.1678 341.503 77.0054 339.585C77.0054 339.585 68.6031 309.822 70.5215 288.461L69.5623 271.417L63.0785 236.129C63.0785 236.129 55.5893 230.595 52.7578 216.927L75.7971 209.244L90.425 211.015L90.4342 211.024Z" fill="#00F500" stroke="#263238" stroke-width="0.922309" stroke-linecap="round" stroke-linejoin="round"/>
<path d="M63.3282 125.48C63.3282 125.48 53.2473 133.163 51.8085 152.365C50.3697 171.568 47.2523 211.651 53.4871 222.212C53.4871 222.212 59.4914 211.43 91.8921 215.737C91.8921 215.737 95.2493 199.652 90.2135 168.201C85.1685 136.76 79.4133 128.837 63.3282 125.48Z" fill="#263238" stroke="#263238" stroke-width="0.922309" stroke-linecap="round" stroke-linejoin="round"/>
<path d="M63.3255 126.439L64.2847 120.435C64.2847 120.435 71.3588 120.435 77.4829 125.6C81.7717 129.215 83.1275 132.683 80.0008 136.76L63.3163 127.159V126.439H63.3255Z" fill="#263238" stroke="#263238" stroke-width="0.922309" stroke-linecap="round" stroke-linejoin="round"/>
<path d="M79.7452 134.509C76.2312 129.963 71.7396 127.537 65.6523 125.997" stroke="#7F7F7F" stroke-width="0.691732" stroke-linecap="round" stroke-linejoin="round"/>
<path d="M87.5333 153.638C85.8363 146.426 83.9086 141.085 81.4922 137.064" stroke="#7F7F7F" stroke-width="0.691732" stroke-linecap="round" stroke-linejoin="round"/>
<path d="M115.12 194.621L69.3554 194.685L69.4029 228.691L115.168 228.627L115.12 194.621Z" fill="#999999" stroke="#263238" stroke-width="0.691732" stroke-linecap="round" stroke-linejoin="round"/>
<path d="M77.1045 196.879L72.3085 196.885L72.3135 200.446L77.1095 200.439L77.1045 196.879Z" fill="#263238" stroke="#263238" stroke-width="0.922309" stroke-linecap="round" stroke-linejoin="round"/>
<path d="M76.8124 221.289L87.6404 204.706L98.5052 221.262L76.8124 221.289Z" fill="#92E3A9"/>
<mask id="mask35_2195_41" style="mask-type:luminance" maskUnits="userSpaceOnUse" x="76" y="204" width="23" height="18">
<path d="M76.8124 221.289L87.6404 204.706L98.5052 221.262L76.8124 221.289Z" fill="white"/>
</mask>
<g mask="url(#mask35_2195_41)">
<path opacity="0.5" d="M76.8124 221.289L87.6404 204.706L98.5052 221.262L76.8124 221.289Z" fill="white"/>
</g>
<path d="M76.8124 221.289L87.6404 204.706L98.5052 221.262L76.8124 221.289Z" stroke="#263238" stroke-width="0.691732" stroke-linecap="round" stroke-linejoin="round"/>
<path d="M91.1445 221.271L99.4084 208.608L107.709 221.243L91.1445 221.271Z" fill="#92E3A9" stroke="#263238" stroke-width="0.691732" stroke-linecap="round" stroke-linejoin="round"/>
<path d="M98.4244 204.688C98.4244 206.219 97.1885 207.455 95.6575 207.455C94.1265 207.455 92.8906 206.219 92.8906 204.688C92.8906 203.157 94.1265 201.921 95.6575 201.921C97.1885 201.921 98.4244 203.157 98.4244 204.688Z" fill="#92E3A9"/>
<mask id="mask36_2195_41" style="mask-type:luminance" maskUnits="userSpaceOnUse" x="92" y="201" width="7" height="7">
<path d="M98.4283 204.688C98.4283 206.219 97.1924 207.455 95.6614 207.455C94.1304 207.455 92.8945 206.219 92.8945 204.688C92.8945 203.157 94.1304 201.921 95.6614 201.921C97.1924 201.921 98.4283 203.157 98.4283 204.688Z" fill="white"/>
</mask>
<g mask="url(#mask36_2195_41)">
<path opacity="0.7" d="M98.4283 204.688C98.4283 206.219 97.1924 207.455 95.6614 207.455C94.1304 207.455 92.8945 206.219 92.8945 204.688C92.8945 203.157 94.1304 201.921 95.6614 201.921C97.1924 201.921 98.4283 203.157 98.4283 204.688Z" fill="white"/>
</g>
<path d="M98.4244 204.688C98.4244 206.219 97.1885 207.455 95.6575 207.455C94.1265 207.455 92.8906 206.219 92.8906 204.688C92.8906 203.157 94.1265 201.921 95.6575 201.921C97.1885 201.921 98.4244 203.157 98.4244 204.688Z" stroke="#263238" stroke-width="0.691732" stroke-linecap="round" stroke-linejoin="round"/>
<path d="M112.715 191.834L67.3398 197.792L71.7667 231.508L117.142 225.55L112.715 191.834Z" fill="white" stroke="#263238" stroke-width="0.691732" stroke-linecap="round" stroke-linejoin="round"/>
<path d="M75.3255 198.954L70.5703 199.579L71.0338 203.108L75.789 202.484L75.3255 198.954Z" fill="#263238" stroke="#263238" stroke-width="0.922309" stroke-linecap="round" stroke-linejoin="round"/>
<path d="M78.1797 223.199L86.7848 205.361L99.6972 220.367L78.1797 223.199Z" fill="#92E3A9"/>
<mask id="mask37_2195_41" style="mask-type:luminance" maskUnits="userSpaceOnUse" x="78" y="205" width="22" height="19">
<path d="M78.1758 223.199L86.7809 205.361L99.6933 220.367L78.1758 223.199Z" fill="white"/>
</mask>
<g mask="url(#mask37_2195_41)">
<path opacity="0.5" d="M78.1758 223.199L86.7809 205.361L99.6933 220.367L78.1758 223.199Z" fill="#6CFF6C"/>
</g>
<path d="M78.1797 223.199L86.7848 205.361L99.6972 220.367L78.1797 223.199Z" stroke="#263238" stroke-width="0.691732" stroke-linecap="round" stroke-linejoin="round"/>
<path d="M92.3945 221.326L98.9614 207.713L108.821 219.168L92.3945 221.326Z" fill="#00F500" stroke="#263238" stroke-width="0.691732" stroke-linecap="round" stroke-linejoin="round"/>
<path d="M97.4759 203.95C97.6788 205.463 96.6089 206.855 95.0963 207.049C93.5837 207.252 92.191 206.182 91.9974 204.67C91.7944 203.157 92.8643 201.764 94.3769 201.571C95.8895 201.368 97.2822 202.438 97.4759 203.95Z" fill="#92E3A9"/>
<mask id="mask38_2195_41" style="mask-type:luminance" maskUnits="userSpaceOnUse" x="91" y="201" width="7" height="7">
<path d="M97.4759 203.95C97.6788 205.463 96.6089 206.855 95.0963 207.049C93.5837 207.252 92.191 206.182 91.9974 204.67C91.7944 203.157 92.8643 201.764 94.3769 201.571C95.8895 201.368 97.2822 202.438 97.4759 203.95Z" fill="white"/>
</mask>
<g mask="url(#mask38_2195_41)">
<path opacity="0.7" d="M97.4759 203.95C97.6788 205.463 96.6089 206.855 95.0963 207.049C93.5837 207.252 92.191 206.182 91.9974 204.67C91.7944 203.157 92.8643 201.764 94.3769 201.571C95.8895 201.368 97.2822 202.438 97.4759 203.95Z" fill="#6CFF6C"/>
</g>
<path d="M97.4759 203.95C97.6788 205.463 96.6089 206.855 95.0963 207.049C93.5837 207.252 92.191 206.182 91.9974 204.67C91.7944 203.157 92.8643 201.764 94.3769 201.571C95.8895 201.368 97.2822 202.438 97.4759 203.95Z" stroke="#263238" stroke-width="0.691732" stroke-linecap="round" stroke-linejoin="round"/>
<path d="M86.0673 211.024L90.9002 217.923L96.4525 219.205C98.7306 219.731 99.9204 220.229 100.787 222.405C101.405 223.964 100.99 224.444 99.8743 224.859C99.8743 224.859 103.167 231.195 99.7359 230.568C99.7359 230.568 100.013 233.473 96.5909 232.422C96.5909 232.422 95.4933 234.386 93.1137 232.781C93.1137 232.781 91.2414 234.193 88.7051 229.424L85.0066 222.636L79.5742 216.512L86.0673 211.024Z" fill="#999999" stroke="#263238" stroke-width="0.922309" stroke-linecap="round" stroke-linejoin="round"/>
<path d="M99.3866 228.52C99.3866 228.52 99.8478 230.448 97.9478 230.402C96.0571 230.365 96.4076 232.219 91.9805 231.573" fill="#999999"/>
<path d="M99.3866 228.52C99.3866 228.52 99.8478 230.448 97.9478 230.402C96.0571 230.365 96.4076 232.219 91.9805 231.573" stroke="#263238" stroke-width="0.922309" stroke-linecap="round" stroke-linejoin="round"/>
<path d="M59.9659 142.045C59.9659 142.045 55.1699 156.442 57.8077 188.132C57.8077 188.132 69.6225 213.099 81.714 220.054L89.2492 213.809L74.6122 184.047C74.6122 184.047 82.1013 153.564 81.714 147.8" fill="#263238"/>
<path d="M59.9659 142.045C59.9659 142.045 55.1699 156.442 57.8077 188.132C57.8077 188.132 69.6225 213.099 81.714 220.054L89.2492 213.809L74.6122 184.047C74.6122 184.047 82.1013 153.564 81.714 147.8" stroke="#263238" stroke-width="0.922309" stroke-linecap="round" stroke-linejoin="round"/>
<path d="M80 160.205C81.0975 154.653 81.8907 149.774 81.7616 147.8" stroke="#7F7F7F" stroke-width="0.691732" stroke-linecap="round" stroke-linejoin="round"/>
<path d="M75.4402 185.642L74.6562 184.047C74.6562 184.047 77.4324 172.758 79.5168 162.631" stroke="#7F7F7F" stroke-width="0.691732" stroke-linecap="round" stroke-linejoin="round"/>
<path d="M79.513 193.925L76.4141 187.616" stroke="#7F7F7F" stroke-width="0.691732" stroke-linecap="round" stroke-linejoin="round"/>
<path d="M57.5938 184.729C57.6675 185.836 57.7598 186.97 57.852 188.123C57.852 188.123 61.8917 196.654 67.6562 205.13" stroke="#7F7F7F" stroke-width="0.691732" stroke-linecap="round" stroke-linejoin="round"/>
<path d="M60.0129 142.045C60.0129 142.045 55.8256 154.597 57.4212 182.036" stroke="#7F7F7F" stroke-width="0.691732" stroke-linecap="round" stroke-linejoin="round"/>
<path d="M366.757 90.017C366.472 86.8074 365.319 77.529 361.242 66.2676" stroke="#263238" stroke-width="0.922309" stroke-linecap="round" stroke-linejoin="round"/>
<path d="M338.379 30.5466C338.425 30.5835 338.462 30.6296 338.508 30.6758" stroke="#263238" stroke-width="0.922309" stroke-linecap="round" stroke-linejoin="round"/>
<path d="M335.766 28.1118C335.36 27.7337 334.935 27.374 334.52 27.0235C324.246 18.197 316.222 16.2233 312.855 15.7898" stroke="#263238" stroke-width="0.922309" stroke-linecap="round" stroke-linejoin="round"/>
<path d="M311.931 13.899L309.859 14.9109L310.871 16.9828L312.943 15.9709L311.931 13.899Z" stroke="#263238" stroke-width="0.922309" stroke-linecap="round" stroke-linejoin="round"/>
<path d="M367.376 89.7157L365.305 90.7275L366.316 92.7994L368.388 91.7876L367.376 89.7157Z" stroke="#263238" stroke-width="0.922309" stroke-linecap="round" stroke-linejoin="round"/>
<path d="M349.366 41.3286L350.593 42.5553C350.556 42.7028 350.473 42.8504 350.353 42.9611C350.242 43.0718 350.104 43.1548 349.966 43.2009L348.72 41.9558L337.828 31.091L338.455 30.4546L349.366 41.3286Z" fill="#263238" stroke="#263238" stroke-width="0.922309" stroke-linecap="round" stroke-linejoin="round"/>
<path d="M350.84 41.5778C351.2 41.9375 351.311 42.4447 351.163 42.9059C351.108 43.1088 350.997 43.3025 350.85 43.4593C350.693 43.6161 350.518 43.7175 350.324 43.7729C349.872 43.9389 349.328 43.8282 348.959 43.4593C348.59 43.0904 348.488 42.5646 348.645 42.0943C348.701 41.9006 348.811 41.7253 348.959 41.5685C349.106 41.4118 349.309 41.2919 349.503 41.2457C349.955 41.0982 350.471 41.2181 350.831 41.5778H350.84Z" fill="#263238" stroke="#263238" stroke-width="0.922309" stroke-linecap="round" stroke-linejoin="round"/>
<path d="M335.623 28.112L324.933 17.5146" stroke="#263238" stroke-width="0.922309" stroke-linecap="round" stroke-linejoin="round"/>
<path d="M325.135 16.3434C325.384 16.8599 325.162 17.4779 324.646 17.7269C324.129 17.9759 323.511 17.7545 323.262 17.2381C323.013 16.7216 323.235 16.1036 323.751 15.8546C324.268 15.6056 324.886 15.8269 325.135 16.3434Z" stroke="#263238" stroke-width="0.922309" stroke-linecap="round" stroke-linejoin="round"/>
<path d="M338.51 28.1121L338.492 30.4271L338.372 30.547L338.233 30.6945L337.745 31.1926L335.43 31.1741L335.439 28.1121H338.51Z" stroke="#263238" stroke-width="0.922309" stroke-linecap="round" stroke-linejoin="round"/>
<path d="M338.493 30.427V30.9619V31.1925H337.746L338.235 30.6945L338.373 30.5469L338.493 30.427Z" stroke="#5C5C5C" stroke-width="0.922309" stroke-miterlimit="10"/>
<path d="M359.373 36.2468L363.247 46.4475L354.245 55.4677L344.044 51.6401L336.832 32.1056L338.234 30.6945L338.372 30.5469L339.82 29.0989L359.373 36.2468Z" stroke="#263238" stroke-width="0.922309" stroke-linecap="round" stroke-linejoin="round"/>
<path d="M375.256 52.9221L361.514 66.6922L354.246 55.4769L363.248 46.4475L375.256 52.9221Z" stroke="#263238" stroke-width="0.922309" stroke-linecap="round" stroke-linejoin="round"/>
<path d="M358.73 54.4438L364.273 48.8823L369.438 51.64" stroke="#263238" stroke-width="0.922309" stroke-linecap="round" stroke-linejoin="round"/>
<path d="M357.004 56.1778L357.557 55.6152" stroke="#263238" stroke-width="0.922309" stroke-linecap="round" stroke-linejoin="round"/>
<path d="M91.028 39.6686C88.1227 32.3732 79.8404 28.8131 72.5449 31.7183C65.2494 34.6236 61.6893 42.9059 64.5946 50.2014C66.7067 55.4954 72.3512 57.4046 76.6861 60.5312C78.0326 61.4997 79.8773 66.3879 79.8773 66.3879L91.0925 61.9147C91.0925 61.9147 89.0635 57.1003 89.3771 55.4678C90.3731 50.2106 93.1493 44.9535 91.0464 39.6594L91.028 39.6686Z" stroke="#263238" stroke-width="0.922309" stroke-linecap="round" stroke-linejoin="round"/>
<path d="M80.1719 67.1438L91.3862 62.672L91.5024 62.9633C92.1446 64.5739 91.3565 66.4073 89.7459 67.0496L84.3743 69.1915C82.7637 69.8338 80.9303 69.0457 80.288 67.4351L80.1719 67.1438Z" stroke="#263238" stroke-width="0.922309" stroke-linecap="round" stroke-linejoin="round"/>
<path opacity="0.5" d="M80.1719 67.1438L91.3862 62.672L91.5024 62.9633C92.1446 64.5739 91.3565 66.4073 89.7459 67.0496L84.3743 69.1915C82.7637 69.8338 80.9303 69.0457 80.288 67.4351L80.1719 67.1438Z" stroke="#263238" stroke-width="0.922309" stroke-linecap="round" stroke-linejoin="round"/>
<path d="M84.7422 69.9243L89.9856 67.8345L90.0812 68.0744C90.6037 69.3853 89.9596 70.8831 88.6487 71.4055L88.1775 71.5933C86.8666 72.1158 85.3688 71.4717 84.8464 70.1608L84.7508 69.9209L84.7422 69.9243Z" stroke="#263238" stroke-width="0.922309" stroke-linecap="round" stroke-linejoin="round"/>
<path opacity="0.2" d="M84.7422 69.9243L89.9856 67.8345L90.0812 68.0744C90.6037 69.3853 89.9596 70.8831 88.6487 71.4055L88.1775 71.5933C86.8666 72.1158 85.3688 71.4717 84.8464 70.1608L84.7508 69.9209L84.7422 69.9243Z" stroke="#263238" stroke-width="0.922309" stroke-linecap="round" stroke-linejoin="round"/>
<path d="M70.0234 14.7388L73.2792 26.9132" stroke="#263238" stroke-width="0.922309" stroke-linecap="round" stroke-linejoin="round"/>
<path d="M68.7031 9.82275L69.3672 12.3038" stroke="#263238" stroke-width="0.922309" stroke-linecap="round" stroke-linejoin="round"/>
<path d="M55.9018 50.2383L43.4414 53.577" stroke="#263238" stroke-width="0.922309" stroke-linecap="round" stroke-linejoin="round"/>
<path d="M60.5302 49.0024L58.4182 49.5651" stroke="#263238" stroke-width="0.922309" stroke-linecap="round" stroke-linejoin="round"/>
<path d="M108.409 36.1638L95.3672 39.6594" stroke="#263238" stroke-width="0.922309" stroke-linecap="round" stroke-linejoin="round"/>
<path d="M112.447 35.0847L110.594 35.5828" stroke="#263238" stroke-width="0.922309" stroke-linecap="round" stroke-linejoin="round"/>
<path d="M68.9348 59.9502L60.0898 75.2697" stroke="#263238" stroke-width="0.922309" stroke-linecap="round" stroke-linejoin="round"/>
<path d="M95.8098 13.3921L86.9648 28.7116" stroke="#263238" stroke-width="0.922309" stroke-linecap="round" stroke-linejoin="round"/>
<path d="M62.3221 35.3154L47.0118 26.4705" stroke="#263238" stroke-width="0.922309" stroke-linecap="round" stroke-linejoin="round"/>
<path d="M95.8854 54.693L93.5704 53.3464" stroke="#263238" stroke-width="0.922309" stroke-linecap="round" stroke-linejoin="round"/>
<path d="M108.88 62.1914L98.0156 55.9197" stroke="#263238" stroke-width="0.922309" stroke-linecap="round" stroke-linejoin="round"/>
</g>
<defs>
<clipPath id="clip0_2195_41">
<rect width="411" height="376.173" fill="white"/>
</clipPath>
</defs>
</svg>
