<svg width="235" height="47" viewBox="0 0 235 47" fill="none" xmlns="http://www.w3.org/2000/svg">
<g clip-path="url(#clip0_7_4189)">
<mask id="mask0_7_4189" style="mask-type:luminance" maskUnits="userSpaceOnUse" x="-1" y="-1" width="236" height="47">
<path d="M234.789 -0.000732422H-0.00140381V45.9438H234.789V-0.000732422Z" fill="white"/>
</mask>
<g mask="url(#mask0_7_4189)">
<path d="M55.5022 25.6088V25.5368C55.5022 18.3779 61.2626 12.5732 68.9425 12.5732C76.6224 12.5732 82.311 18.3067 82.311 25.4657V25.5377C82.311 32.6951 76.5506 38.5014 68.8706 38.5014C61.1907 38.5014 55.5022 32.7662 55.5022 25.6088ZM75.2703 25.6088V25.5368C75.2703 21.9398 72.6763 18.8056 68.8706 18.8056C65.065 18.8056 62.5772 21.8686 62.5772 25.4657V25.5377C62.5772 29.1348 65.1735 32.2689 68.9417 32.2689C72.7098 32.2689 75.2703 29.2059 75.2703 25.6088Z" fill="black"/>
<path d="M85.05 25.6088V25.5368C85.05 18.2716 90.6323 12.5732 98.1693 12.5732C103.254 12.5732 106.525 14.7096 108.729 17.7726L103.539 21.7974C102.115 20.0177 100.481 18.8775 98.0991 18.8775C94.6143 18.8775 92.1615 21.8342 92.1615 25.4657V25.5377C92.1615 29.2755 94.6143 32.1978 98.0991 32.1978C100.693 32.1978 102.223 30.9866 103.716 29.1699L108.906 32.8734C106.56 36.1148 103.396 38.5022 97.8844 38.5022C90.7744 38.5022 85.05 33.0525 85.05 25.6088Z" fill="black"/>
<path d="M117.934 19.1268H110.467V13.0728H132.297V19.1268H124.83V38.0014H117.934V19.1268Z" fill="black"/>
<path d="M133.4 25.6088V25.5368C133.4 18.3779 139.16 12.5732 146.84 12.5732C154.519 12.5732 160.208 18.3067 160.208 25.4657V25.5377C160.208 32.6951 154.447 38.5014 146.768 38.5014C139.088 38.5014 133.4 32.7662 133.4 25.6088ZM153.167 25.6088V25.5368C153.167 21.9398 150.574 18.8056 146.768 18.8056C142.963 18.8056 140.474 21.8686 140.474 25.4657V25.5377C140.474 29.1348 143.071 32.2689 146.838 32.2689C150.607 32.2689 153.167 29.2059 153.167 25.6088Z" fill="black"/>
<path d="M163.799 13.0718H174.465C180.759 13.0718 184.811 16.3132 184.811 21.8331V21.9027C184.811 27.7793 180.297 30.8791 174.11 30.8791H170.698V38.0013H163.799V13.0718ZM173.967 25.4647C176.42 25.4647 177.914 24.1814 177.914 22.2233V22.1513C177.914 20.015 176.42 18.8757 173.932 18.8757H170.697V25.4639H173.966L173.967 25.4647Z" fill="black"/>
<path d="M187.407 27.0669V13.0718H194.411V26.9253C194.411 30.5225 196.223 32.2311 198.997 32.2311C201.771 32.2311 203.582 30.5921 203.582 27.1037V13.0718H210.585V26.8886C210.585 34.9376 206 38.4634 198.925 38.4634C191.849 38.4634 187.407 34.8663 187.407 27.0669Z" fill="black"/>
<path d="M212.792 34.2978L216.631 29.702C219.084 31.6626 221.823 32.6932 224.703 32.6932C226.55 32.6932 227.545 32.0527 227.545 30.9845V30.9125C227.545 29.8796 226.727 29.3103 223.351 28.5268C218.053 27.3154 213.965 25.8195 213.965 20.6921V20.6201C213.965 15.99 217.626 12.6423 223.599 12.6423C227.83 12.6423 231.136 13.7817 233.838 15.9549L230.391 20.8328C228.115 19.2305 225.625 18.3758 223.421 18.3758C221.751 18.3758 220.933 19.0882 220.933 19.978V20.05C220.933 21.1894 221.785 21.6891 225.235 22.4726C230.958 23.7183 234.514 25.5701 234.514 30.2353V30.3073C234.514 35.4003 230.496 38.4282 224.452 38.4282C220.045 38.4282 215.849 37.0385 212.791 34.2969L212.792 34.2978Z" fill="black"/>
<path d="M229.922 6.31799H228.786V9.95748H228.066V6.31799H226.931V5.63599H229.921V6.31799H229.922ZM232.743 8.69901L233.752 5.63599H234.789V9.95748H234.113V6.57944H234.094L232.986 9.95748H232.482L231.374 6.57944H231.356V9.95748H230.68V5.63599H231.726L232.744 8.69901H232.743Z" fill="black"/>
<path fill-rule="evenodd" clip-rule="evenodd" d="M39.6259 37.1312C40.4336 37.1312 41.2358 37.0425 42.0172 36.8594C42.4497 36.7603 42.8705 36.63 43.2879 36.4789C44.47 36.0456 45.5635 35.3988 46.5173 34.5848C47.1581 34.0371 48.1207 34.1154 48.6627 34.7575L48.7617 34.8718C49.3036 35.5082 49.2254 36.4732 48.59 37.0162C47.3449 38.0756 45.9234 38.9095 44.3918 39.4788C42.8664 40.0424 41.2565 40.3295 39.6259 40.3295C35.9439 40.3295 32.4385 38.8575 29.8396 36.2543C27.2352 33.6454 25.7657 30.1346 25.7657 26.4455C25.7657 25.6052 26.4538 24.9216 27.287 24.9216H27.4379C28.2768 24.9216 28.9584 25.6052 28.9584 26.4455C28.9584 26.8525 28.9848 27.2594 29.0319 27.6608C29.3073 30.0506 30.3751 32.2733 32.0952 33.9947C34.1002 35.9984 36.7876 37.1312 39.6259 37.1312ZM19.6415 20.0444C19.6415 19.2624 20.2776 18.6252 21.0534 18.6252H22.1628C22.945 18.6252 23.5796 19.2624 23.5796 20.0444C23.5796 20.8263 22.945 21.4636 22.1628 21.4636H21.0534C20.2776 21.4636 19.6415 20.8224 19.6415 20.0444ZM25.3866 20.0444C25.3866 19.2624 26.0228 18.6252 26.8042 18.6252H27.9081C28.6895 18.6252 29.3247 19.2624 29.3247 20.0444C29.3247 20.8263 28.6895 21.4636 27.9081 21.4636H26.8042C26.022 21.4636 25.3866 20.8224 25.3866 20.0444ZM9.49521 37.1312C12.3286 37.1312 15.0216 35.9992 17.0218 33.9956C17.3451 33.6725 17.6468 33.3335 17.923 32.9729C18.4961 32.2325 18.9654 31.4234 19.3246 30.5679C19.8713 29.2791 20.1579 27.8806 20.1579 26.4463C20.1579 25.606 20.8395 24.9224 21.6784 24.9224H21.83C22.6688 24.9224 23.3506 25.606 23.3506 26.4463C23.3506 30.1346 21.8811 33.6461 19.283 36.255C16.6786 38.8583 13.1787 40.3303 9.49601 40.3303C7.86617 40.3303 6.25148 40.0432 4.72459 39.4795C3.19452 38.9102 1.77299 38.0763 0.531842 37.0169C-0.107487 36.4741 -0.180918 35.5091 0.360236 34.8727L0.45442 34.7583C0.996373 34.1163 1.96534 34.0379 2.59988 34.5856C3.55848 35.3995 4.65275 36.0471 5.83005 36.4797C7.00096 36.913 8.2405 37.1312 9.49521 37.1312ZM24.5581 3.19261C21.9122 3.19261 19.3964 4.252 17.5272 6.12451C15.6578 8.00342 14.5995 10.518 14.5995 13.1732C14.5995 14.3478 15.0736 15.1144 15.6466 16.0899C17.152 18.6148 17.7506 20.5089 17.7506 23.5088V26.4463C17.7506 28.6426 16.8751 30.7351 15.3226 32.2893C13.7757 33.8444 11.6878 34.7152 9.49442 34.7152C7.30106 34.7152 5.20907 33.8436 3.66144 32.2893C2.10901 30.7351 1.23502 28.6426 1.23502 26.4463C1.23502 25.606 1.91666 24.9224 2.75552 24.9224H2.90637C3.74444 24.9224 4.42688 25.606 4.42688 26.4463C4.42688 27.7976 4.96324 29.0759 5.91704 30.0307C6.86846 30.9853 8.14552 31.5226 9.49442 31.5226C10.8433 31.5226 12.1147 30.9853 13.0678 30.0307C14.0208 29.0759 14.558 27.7976 14.558 26.4463V23.5088C14.558 21.0886 14.1102 19.7478 12.9065 17.7226C12.0055 16.2043 11.4068 15.0153 11.4068 13.1732C11.4068 9.67205 12.7964 6.33879 15.2667 3.86502C17.7403 1.39206 21.0638 -0.000732422 24.5581 -0.000732422C28.0525 -0.000732422 31.3808 1.39206 33.8496 3.86502C36.3183 6.33879 37.7094 9.67205 37.7094 13.1732C37.7094 15.0153 37.1156 16.2043 36.2146 17.7226C35.0109 19.747 34.5583 21.0878 34.5583 23.5088V26.4463C34.5583 27.7976 35.1003 29.0759 36.0484 30.0307C37.0015 30.9853 38.2769 31.5226 39.6259 31.5226C40.9748 31.5226 42.251 30.9853 43.1993 30.0307C44.1522 29.0759 44.6886 27.7976 44.6886 26.4463C44.6886 25.606 45.371 24.9224 46.2099 24.9224H46.3608C47.1988 24.9224 47.8813 25.606 47.8813 26.4463C47.8813 28.6426 47.0057 30.7351 45.4596 32.2893C43.9072 33.8444 41.8192 34.7152 39.6259 34.7152L38.9498 34.6887C37.0062 34.5272 35.1841 33.6821 33.7936 32.2886C33.0745 31.5681 32.507 30.7391 32.096 29.8315C31.6219 28.777 31.3713 27.6248 31.3713 26.4455V23.508C31.3713 20.5081 31.9699 18.6141 33.4705 16.0891C34.0482 15.1129 34.5169 14.3469 34.5169 13.1724C34.5169 10.5172 33.4656 8.00262 31.5899 6.12371C29.7199 4.2512 27.2096 3.19261 24.5581 3.19261ZM28.8706 13.1628C28.8706 12.0154 28.4013 10.9305 27.5944 10.1214C26.7866 9.31306 25.7035 8.85412 24.5573 8.85412C23.7184 8.85412 23.036 8.17053 23.036 7.33021V7.1791C23.036 6.33959 23.7184 5.65598 24.5573 5.65598C26.5456 5.65598 28.4428 6.45472 29.8492 7.8579C31.2555 9.26669 32.0569 11.16 32.0616 13.1532C32.0616 13.5698 31.9164 13.9352 31.6195 14.2326C31.3226 14.5301 30.9634 14.6812 30.5403 14.6812H30.3904C29.5562 14.6812 28.8754 13.9976 28.8706 13.1628ZM24.5581 34.4713C25.0841 34.4497 25.6045 34.7008 25.9015 35.1748C27.3804 37.4911 29.4277 39.4115 31.8286 40.7421C34.2246 42.0621 36.8913 42.7457 39.625 42.7457C40.4639 42.7457 41.1463 43.4293 41.1463 44.2687V44.4207C41.1463 45.2602 40.4631 45.9438 39.625 45.9438C36.3541 45.9438 33.1568 45.1194 30.2922 43.5379C28.0892 42.3274 26.1409 40.6949 24.5581 38.7535C22.9745 40.6949 21.0271 42.3274 18.8281 43.5379C15.9635 45.1194 12.7613 45.9438 9.49442 45.9438C8.65635 45.9438 7.97391 45.2602 7.97391 44.4207V44.2687C7.97391 43.4285 8.65635 42.7457 9.49442 42.7457C12.2241 42.7457 14.8908 42.0621 17.2861 40.7421C19.6926 39.4115 21.7343 37.4911 23.2132 35.1748C23.5149 34.6999 24.037 34.4497 24.5581 34.4713Z" fill="#00FF00"/>
</g>
</g>
<defs>
<clipPath id="clip0_7_4189">
<rect width="234.79" height="46.0141" fill="white"/>
</clipPath>
</defs>
</svg>
