<svg width="36" height="34" viewBox="0 0 36 34" fill="none" xmlns="http://www.w3.org/2000/svg">
<path fill-rule="evenodd" clip-rule="evenodd" d="M28.6943 26.8419C29.2792 26.8419 29.8601 26.7777 30.4259 26.6454C30.7392 26.5737 31.0437 26.4795 31.346 26.3703C32.202 26.057 32.9938 25.5894 33.6845 25.0011C34.1486 24.6051 34.8456 24.6618 35.238 25.1259L35.3097 25.2085C35.7021 25.6686 35.6455 26.3662 35.1854 26.7586C34.2838 27.5245 33.2545 28.1273 32.1453 28.5388C31.0409 28.9463 29.8751 29.1537 28.6943 29.1537C26.0282 29.1537 23.4897 28.0897 21.6079 26.2078C19.722 24.3219 18.6579 21.7841 18.6579 19.1174C18.6579 18.5099 19.1561 18.0158 19.7595 18.0158H19.8688C20.4762 18.0158 20.9698 18.5099 20.9698 19.1174C20.9698 19.4116 20.9889 19.7057 21.023 19.9959C21.2224 21.7234 21.9957 23.3302 23.2412 24.5745C24.6931 26.0229 26.6385 26.8413 28.6937 26.8413L28.6943 26.8419ZM14.2232 14.4902C14.2232 13.9249 14.6838 13.4643 15.2456 13.4643H16.049C16.6154 13.4643 17.0749 13.9249 17.0749 14.4902C17.0749 15.0554 16.6154 15.5161 16.049 15.5161H15.2456C14.6838 15.5161 14.2232 15.0525 14.2232 14.4902ZM18.3834 14.4902C18.3834 13.9249 18.844 13.4643 19.4099 13.4643H20.2092C20.775 13.4643 21.2351 13.9249 21.2351 14.4902C21.2351 15.0554 20.775 15.5161 20.2092 15.5161H19.4099C18.8435 15.5161 18.3834 15.0525 18.3834 14.4902ZM6.87669 26.8419C8.92847 26.8419 10.8785 26.0235 12.3269 24.5751C12.561 24.3416 12.7795 24.0965 12.9794 23.8359C13.3944 23.3007 13.7343 22.7158 13.9943 22.0974C14.3902 21.1657 14.5977 20.1548 14.5977 19.1179C14.5977 18.5105 15.0913 18.0163 15.6988 18.0163H15.8086C16.416 18.0163 16.9096 18.5105 16.9096 19.1179C16.9096 21.7841 15.8456 24.3225 13.9643 26.2084C12.0784 28.0903 9.544 29.1543 6.87727 29.1543C5.69706 29.1543 4.52784 28.9468 3.42219 28.5394C2.31423 28.1279 1.28487 27.525 0.386134 26.7592C-0.0768162 26.3668 -0.12999 25.6692 0.26187 25.2091L0.330073 25.1265C0.722512 24.6624 1.42416 24.6057 1.88365 25.0016C2.57778 25.59 3.37017 26.0582 4.22267 26.3708C5.07055 26.6841 5.96871 26.8425 6.87727 26.8425L6.87669 26.8419ZM17.7841 2.30839C15.8681 2.30839 14.0464 3.0742 12.6928 4.42779C11.3392 5.78601 10.5728 7.60372 10.5728 9.52314C10.5728 10.3722 10.9161 10.9264 11.3311 11.6316C12.4211 13.4568 12.8546 14.826 12.8546 16.9945V19.1179C12.8546 20.7056 12.2206 22.2182 11.0964 23.3417C9.97632 24.4659 8.46436 25.0953 6.87611 25.0953C5.28786 25.0953 3.77302 24.4653 2.65234 23.3417C1.5282 22.2182 0.895325 20.7056 0.895325 19.1179C0.895325 18.5105 1.3889 18.0163 1.99635 18.0163H2.10558C2.71245 18.0163 3.20661 18.5105 3.20661 19.1179C3.20661 20.0947 3.595 21.0189 4.28567 21.709C4.97461 22.3991 5.89935 22.7875 6.87611 22.7875C7.85287 22.7875 8.77357 22.3991 9.46367 21.709C10.1538 21.0189 10.5427 20.0947 10.5427 19.1179V16.9945C10.5427 15.245 10.2185 14.2758 9.34692 12.8118C8.69439 11.7142 8.26092 10.8548 8.26092 9.52314C8.26092 6.99223 9.26715 4.58269 11.056 2.79446C12.8471 1.00681 15.2531 0 17.7841 0C20.315 0 22.7245 1.00681 24.5122 2.79446C26.2998 4.58269 27.3072 6.99223 27.3072 9.52314C27.3072 10.8548 26.8772 11.7142 26.2247 12.8118C25.3531 14.2752 25.0254 15.2444 25.0254 16.9945V19.1179C25.0254 20.0947 25.4178 21.0189 26.1044 21.709C26.7945 22.3991 27.7181 22.7875 28.6949 22.7875C29.6717 22.7875 30.5958 22.3991 31.2824 21.709C31.9725 21.0189 32.3609 20.0947 32.3609 19.1179C32.3609 18.5105 32.8551 18.0163 33.4625 18.0163H33.5718C34.1786 18.0163 34.6728 18.5105 34.6728 19.1179C34.6728 20.7056 34.0388 22.2182 32.9192 23.3417C31.7951 24.4659 30.2831 25.0953 28.6949 25.0953L28.2054 25.0762C26.798 24.9594 25.4785 24.3485 24.4717 23.3411C23.9509 22.8204 23.54 22.221 23.2424 21.5651C22.8991 20.8027 22.7176 19.9699 22.7176 19.1174V16.9939C22.7176 14.8254 23.151 13.4562 24.2376 11.631C24.6561 10.9253 24.9953 10.3716 24.9953 9.52256C24.9953 7.60314 24.2341 5.78543 22.8759 4.42722C21.5218 3.07362 19.7046 2.30782 17.7846 2.30782L17.7841 2.30839ZM20.9068 9.51563C20.9068 8.68625 20.567 7.90194 19.9826 7.31704C19.3977 6.73272 18.6134 6.40097 17.7835 6.40097C17.176 6.40097 16.6819 5.90681 16.6819 5.29936V5.19013C16.6819 4.58327 17.176 4.08911 17.7835 4.08911C19.2232 4.08911 20.597 4.6665 21.6154 5.68083C22.6338 6.6992 23.214 8.06782 23.2175 9.50869C23.2175 9.80981 23.1123 10.0739 22.8973 10.2889C22.6823 10.5039 22.4222 10.6132 22.1159 10.6132H22.0073C21.4033 10.6132 20.9097 10.119 20.9062 9.51563H20.9068ZM17.7841 24.919C18.1649 24.9034 18.5418 25.0849 18.7568 25.4276C19.8277 27.102 21.3102 28.4902 23.0487 29.452C24.7838 30.4062 26.7148 30.9004 28.6943 30.9004C29.3018 30.9004 29.7959 31.3945 29.7959 32.0014V32.1112C29.7959 32.7181 29.3012 33.2122 28.6943 33.2122C26.3258 33.2122 24.0105 32.6163 21.9362 31.4731C20.341 30.5981 18.9302 29.4179 17.7841 28.0146C16.6374 29.4179 15.2271 30.5981 13.6348 31.4731C11.5605 32.6163 9.24173 33.2122 6.87611 33.2122C6.26925 33.2122 5.77508 32.7181 5.77508 32.1112V32.0014C5.77508 31.3939 6.26925 30.9004 6.87611 30.9004C8.85275 30.9004 10.7837 30.4062 12.5182 29.452C14.2608 28.4902 15.7392 27.102 16.8102 25.4276C17.0287 25.0843 17.4061 24.9034 17.7835 24.919H17.7841Z" fill="#00FF00"/>
</svg>
